<svg width="1280" height="720" viewBox="0 0 1280 720" fill="none" xmlns="http://www.w3.org/2000/svg">
<rect width="1280" height="720" fill="#1E1E1E"/>
<rect width="1280" height="720" fill="#D5D5D5"/>
<path d="M509.896 93L517.484 72.84H520.06L512.808 93H509.896ZM525.492 93L518.24 72.84H520.956L528.572 93H525.492ZM513.732 84.964H524.54V87.428H513.732V84.964ZM531.524 93V78.72H534.296V82.08H534.436V93H531.524ZM541.66 93V83.816C541.66 82.8267 541.408 82.0893 540.904 81.604C540.419 81.1187 539.691 80.876 538.72 80.876C537.88 80.876 537.134 81.0627 536.48 81.436C535.846 81.8093 535.342 82.3227 534.968 82.976C534.614 83.6293 534.436 84.404 534.436 85.3L534.072 81.884C534.539 80.82 535.258 79.98 536.228 79.364C537.199 78.748 538.328 78.44 539.616 78.44C541.147 78.44 542.351 78.8693 543.228 79.728C544.106 80.5867 544.544 81.7253 544.544 83.144V93H541.66ZM557.189 93C557.096 92.6453 557.03 92.2533 556.993 91.824C556.974 91.3947 556.965 90.872 556.965 90.256H556.825V83.452C556.825 82.5373 556.592 81.856 556.125 81.408C555.677 80.9413 554.958 80.708 553.969 80.708C553.017 80.708 552.252 80.8947 551.673 81.268C551.113 81.6413 550.786 82.1733 550.693 82.864H547.921C548.052 81.52 548.658 80.4467 549.741 79.644C550.824 78.8413 552.27 78.44 554.081 78.44C555.948 78.44 557.348 78.8787 558.281 79.756C559.214 80.6147 559.681 81.884 559.681 83.564V90.256C559.681 90.6853 559.709 91.124 559.765 91.572C559.821 92.02 559.905 92.496 560.017 93H557.189ZM552.261 93.28C550.805 93.28 549.648 92.9253 548.789 92.216C547.93 91.488 547.501 90.508 547.501 89.276C547.501 88.0067 547.949 87.008 548.845 86.28C549.76 85.5333 551.066 85.0293 552.765 84.768L557.469 84.012V86.056L553.213 86.728C552.261 86.8773 551.542 87.1293 551.057 87.484C550.59 87.8387 550.357 88.352 550.357 89.024C550.357 89.6773 550.572 90.172 551.001 90.508C551.449 90.8253 552.093 90.984 552.933 90.984C554.053 90.984 554.977 90.7133 555.705 90.172C556.452 89.6307 556.825 88.9493 556.825 88.128L557.189 90.2C556.853 91.1893 556.256 91.9547 555.397 92.496C554.538 93.0187 553.493 93.28 552.261 93.28ZM554.305 76.676H551.645L554.669 72.28H558.813L554.305 76.676ZM563.626 93V72.84H566.538V93H563.626ZM570.626 93V78.72H573.538V93H570.626ZM570.486 75.92V72.644H573.706V75.92H570.486ZM582.751 93.28C580.884 93.28 579.4 92.8693 578.299 92.048C577.197 91.2267 576.572 90.0693 576.423 88.576H579.111C579.241 89.3973 579.615 90.032 580.231 90.48C580.865 90.9093 581.724 91.124 582.807 91.124C583.759 91.124 584.487 90.956 584.991 90.62C585.495 90.284 585.747 89.808 585.747 89.192C585.747 88.744 585.597 88.3707 585.299 88.072C585.019 87.7547 584.459 87.4933 583.619 87.288L581.323 86.756C579.885 86.4013 578.812 85.8787 578.103 85.188C577.412 84.4787 577.067 83.6107 577.067 82.584C577.067 81.296 577.543 80.288 578.495 79.56C579.465 78.8133 580.791 78.44 582.471 78.44C584.132 78.44 585.467 78.8133 586.475 79.56C587.501 80.3067 588.08 81.352 588.211 82.696H585.523C585.411 82.024 585.084 81.5107 584.543 81.156C584.02 80.7827 583.301 80.596 582.387 80.596C581.528 80.596 580.865 80.7547 580.399 81.072C579.951 81.3707 579.727 81.7907 579.727 82.332C579.727 82.78 579.895 83.1533 580.231 83.452C580.585 83.7507 581.164 84.0027 581.967 84.208L584.319 84.796C585.681 85.132 586.708 85.6827 587.399 86.448C588.089 87.1947 588.435 88.1 588.435 89.164C588.435 90.452 587.931 91.46 586.923 92.188C585.933 92.916 584.543 93.28 582.751 93.28ZM597.786 93.28C596.349 93.28 595.079 92.9627 593.978 92.328C592.895 91.6933 592.046 90.816 591.43 89.696C590.814 88.576 590.506 87.288 590.506 85.832C590.506 84.3573 590.805 83.0693 591.402 81.968C592.018 80.848 592.877 79.98 593.978 79.364C595.079 78.748 596.339 78.44 597.758 78.44C599.139 78.44 600.334 78.7387 601.342 79.336C602.369 79.9147 603.153 80.7267 603.694 81.772C604.254 82.8173 604.534 84.0587 604.534 85.496C604.534 85.72 604.525 85.9347 604.506 86.14C604.506 86.3267 604.487 86.5227 604.45 86.728H592.466V84.544H602.406L601.678 85.412C601.678 83.8813 601.333 82.7147 600.642 81.912C599.951 81.1093 598.99 80.708 597.758 80.708C596.433 80.708 595.378 81.1653 594.594 82.08C593.829 82.976 593.446 84.2267 593.446 85.832C593.446 87.456 593.829 88.7253 594.594 89.64C595.378 90.5547 596.461 91.012 597.842 91.012C598.682 91.012 599.41 90.844 600.026 90.508C600.642 90.1533 601.099 89.64 601.398 88.968H604.142C603.675 90.312 602.882 91.3667 601.762 92.132C600.661 92.8973 599.335 93.28 597.786 93.28ZM623.34 93V89.724L623.62 89.808C623.322 90.872 622.706 91.7213 621.772 92.356C620.839 92.972 619.719 93.28 618.412 93.28C617.124 93.28 615.995 92.972 615.024 92.356C614.072 91.74 613.326 90.8813 612.784 89.78C612.262 88.6787 612 87.3907 612 85.916C612 84.4227 612.271 83.116 612.812 81.996C613.354 80.876 614.11 80.008 615.08 79.392C616.051 78.776 617.19 78.468 618.496 78.468C619.859 78.468 620.979 78.7947 621.856 79.448C622.752 80.0827 623.34 80.9787 623.62 82.136L623.228 82.192V72.84H626.112V93H623.34ZM619.14 90.844C620.428 90.844 621.446 90.4053 622.192 89.528C622.939 88.632 623.312 87.4 623.312 85.832C623.312 84.3013 622.93 83.0973 622.164 82.22C621.418 81.324 620.4 80.876 619.112 80.876C617.843 80.876 616.835 81.324 616.088 82.22C615.36 83.0973 614.996 84.3293 614.996 85.916C614.996 87.4653 615.36 88.6787 616.088 89.556C616.835 90.4147 617.852 90.844 619.14 90.844ZM636.424 93.28C634.968 93.28 633.689 92.9627 632.588 92.328C631.487 91.6747 630.628 90.788 630.012 89.668C629.396 88.5293 629.088 87.2413 629.088 85.804C629.088 84.348 629.396 83.0693 630.012 81.968C630.647 80.8667 631.505 80.008 632.588 79.392C633.689 78.7573 634.968 78.44 636.424 78.44C637.899 78.44 639.187 78.7573 640.288 79.392C641.389 80.008 642.239 80.8667 642.836 81.968C643.452 83.0693 643.76 84.348 643.76 85.804C643.76 87.2413 643.452 88.5293 642.836 89.668C642.239 90.788 641.389 91.6747 640.288 92.328C639.187 92.9627 637.899 93.28 636.424 93.28ZM636.424 90.9C637.301 90.9 638.057 90.6853 638.692 90.256C639.345 89.8267 639.859 89.2293 640.232 88.464C640.605 87.6987 640.792 86.8027 640.792 85.776C640.792 84.2453 640.381 83.0413 639.56 82.164C638.757 81.268 637.712 80.82 636.424 80.82C635.155 80.82 634.109 81.268 633.288 82.164C632.485 83.06 632.084 84.264 632.084 85.776C632.084 86.8027 632.261 87.6987 632.616 88.464C632.989 89.2293 633.503 89.8267 634.156 90.256C634.828 90.6853 635.584 90.9 636.424 90.9ZM652.302 93V72.84H660.842C662.298 72.84 663.54 73.0827 664.566 73.568C665.593 74.0533 666.377 74.744 666.918 75.64C667.478 76.536 667.758 77.6 667.758 78.832C667.758 80.0827 667.478 81.1653 666.918 82.08C666.377 82.976 665.584 83.676 664.538 84.18C663.512 84.684 662.28 84.936 660.842 84.936H654.57V82.472H660.702C662.028 82.472 663.036 82.1547 663.726 81.52C664.436 80.8853 664.79 79.9987 664.79 78.86C664.79 77.7027 664.445 76.816 663.754 76.2C663.064 75.584 662.046 75.276 660.702 75.276H655.27V93H652.302ZM676.153 93.28C674.716 93.28 673.447 92.9627 672.345 92.328C671.263 91.6933 670.413 90.816 669.797 89.696C669.181 88.576 668.873 87.288 668.873 85.832C668.873 84.3573 669.172 83.0693 669.769 81.968C670.385 80.848 671.244 79.98 672.345 79.364C673.447 78.748 674.707 78.44 676.125 78.44C677.507 78.44 678.701 78.7387 679.709 79.336C680.736 79.9147 681.52 80.7267 682.061 81.772C682.621 82.8173 682.901 84.0587 682.901 85.496C682.901 85.72 682.892 85.9347 682.873 86.14C682.873 86.3267 682.855 86.5227 682.817 86.728H670.833V84.544H680.773L680.045 85.412C680.045 83.8813 679.7 82.7147 679.009 81.912C678.319 81.1093 677.357 80.708 676.125 80.708C674.8 80.708 673.745 81.1653 672.961 82.08C672.196 82.976 671.813 84.2267 671.813 85.832C671.813 87.456 672.196 88.7253 672.961 89.64C673.745 90.5547 674.828 91.012 676.209 91.012C677.049 91.012 677.777 90.844 678.393 90.508C679.009 90.1533 679.467 89.64 679.765 88.968H682.509C682.043 90.312 681.249 91.3667 680.129 92.132C679.028 92.8973 677.703 93.28 676.153 93.28ZM685.88 93V78.72H688.652V82.276H688.792V93H685.88ZM688.792 85.552L688.428 82.164C688.764 80.9507 689.343 80.0267 690.164 79.392C690.985 78.7573 691.965 78.44 693.104 78.44C693.533 78.44 693.832 78.4773 694 78.552V81.296C693.907 81.2587 693.776 81.24 693.608 81.24C693.44 81.2213 693.235 81.212 692.992 81.212C691.592 81.212 690.537 81.576 689.828 82.304C689.137 83.032 688.792 84.1147 688.792 85.552ZM698.075 93V77.068C698.075 75.612 698.485 74.5013 699.307 73.736C700.128 72.952 701.36 72.56 703.003 72.56C703.376 72.56 703.684 72.5787 703.927 72.616C704.169 72.6533 704.384 72.7093 704.571 72.784V75.108C704.44 75.0707 704.263 75.0333 704.039 74.996C703.833 74.9587 703.6 74.94 703.339 74.94C702.517 74.94 701.92 75.1453 701.547 75.556C701.173 75.948 700.987 76.508 700.987 77.236V93H698.075ZM707.175 93V78.72H710.059V93H707.175ZM695.331 81.156V78.72H708.351V81.156H695.331ZM707.063 76.032V72.84H710.171V76.032H707.063ZM713.798 93V72.84H716.71V93H713.798ZM736.625 93V89.724L736.905 89.808C736.607 90.872 735.991 91.7213 735.057 92.356C734.124 92.972 733.004 93.28 731.697 93.28C730.409 93.28 729.28 92.972 728.309 92.356C727.357 91.74 726.611 90.8813 726.069 89.78C725.547 88.6787 725.285 87.3907 725.285 85.916C725.285 84.4227 725.556 83.116 726.097 81.996C726.639 80.876 727.395 80.008 728.365 79.392C729.336 78.776 730.475 78.468 731.781 78.468C733.144 78.468 734.264 78.7947 735.141 79.448C736.037 80.0827 736.625 80.9787 736.905 82.136L736.513 82.192V72.84H739.397V93H736.625ZM732.425 90.844C733.713 90.844 734.731 90.4053 735.477 89.528C736.224 88.632 736.597 87.4 736.597 85.832C736.597 84.3013 736.215 83.0973 735.449 82.22C734.703 81.324 733.685 80.876 732.397 80.876C731.128 80.876 730.12 81.324 729.373 82.22C728.645 83.0973 728.281 84.3293 728.281 85.916C728.281 87.4653 728.645 88.6787 729.373 89.556C730.12 90.4147 731.137 90.844 732.425 90.844ZM749.653 93.28C748.216 93.28 746.947 92.9627 745.845 92.328C744.763 91.6933 743.913 90.816 743.297 89.696C742.681 88.576 742.373 87.288 742.373 85.832C742.373 84.3573 742.672 83.0693 743.269 81.968C743.885 80.848 744.744 79.98 745.845 79.364C746.947 78.748 748.207 78.44 749.625 78.44C751.007 78.44 752.201 78.7387 753.209 79.336C754.236 79.9147 755.02 80.7267 755.561 81.772C756.121 82.8173 756.401 84.0587 756.401 85.496C756.401 85.72 756.392 85.9347 756.373 86.14C756.373 86.3267 756.355 86.5227 756.317 86.728H744.333V84.544H754.273L753.545 85.412C753.545 83.8813 753.2 82.7147 752.509 81.912C751.819 81.1093 750.857 80.708 749.625 80.708C748.3 80.708 747.245 81.1653 746.461 82.08C745.696 82.976 745.313 84.2267 745.313 85.832C745.313 87.456 745.696 88.7253 746.461 89.64C747.245 90.5547 748.328 91.012 749.709 91.012C750.549 91.012 751.277 90.844 751.893 90.508C752.509 90.1533 752.967 89.64 753.265 88.968H756.009C755.543 90.312 754.749 91.3667 753.629 92.132C752.528 92.8973 751.203 93.28 749.653 93.28ZM773.807 93.28C772.407 93.28 771.11 93.028 769.915 92.524C768.721 92.0013 767.685 91.2827 766.807 90.368C765.949 89.4347 765.277 88.3333 764.791 87.064C764.306 85.7947 764.063 84.404 764.063 82.892C764.063 81.38 764.297 79.9987 764.763 78.748C765.249 77.4787 765.921 76.3867 766.779 75.472C767.657 74.5387 768.693 73.82 769.887 73.316C771.082 72.812 772.379 72.56 773.779 72.56C775.347 72.56 776.757 72.8773 778.007 73.512C779.258 74.128 780.275 75.0053 781.059 76.144C781.862 77.2827 782.357 78.608 782.543 80.12H779.631C779.389 78.5333 778.745 77.3013 777.699 76.424C776.673 75.528 775.375 75.08 773.807 75.08C772.482 75.08 771.306 75.4067 770.279 76.06C769.271 76.6947 768.487 77.6 767.927 78.776C767.367 79.9333 767.087 81.3053 767.087 82.892C767.087 84.46 767.367 85.8413 767.927 87.036C768.506 88.212 769.299 89.1267 770.307 89.78C771.315 90.4333 772.482 90.76 773.807 90.76C775.375 90.76 776.682 90.3213 777.727 89.444C778.791 88.548 779.435 87.3067 779.659 85.72H782.599C782.394 87.2507 781.89 88.5853 781.087 89.724C780.285 90.844 779.258 91.7213 778.007 92.356C776.775 92.972 775.375 93.28 773.807 93.28ZM785.739 93V72.84H788.651V93H785.739ZM792.739 93V78.72H795.651V93H792.739ZM792.599 75.92V72.644H795.819V75.92H792.599ZM805.845 93.28C804.407 93.28 803.138 92.9627 802.037 92.328C800.954 91.6933 800.105 90.816 799.489 89.696C798.873 88.576 798.565 87.288 798.565 85.832C798.565 84.3573 798.863 83.0693 799.461 81.968C800.077 80.848 800.935 79.98 802.037 79.364C803.138 78.748 804.398 78.44 805.817 78.44C807.198 78.44 808.393 78.7387 809.401 79.336C810.427 79.9147 811.211 80.7267 811.753 81.772C812.313 82.8173 812.593 84.0587 812.593 85.496C812.593 85.72 812.583 85.9347 812.565 86.14C812.565 86.3267 812.546 86.5227 812.509 86.728H800.525V84.544H810.465L809.737 85.412C809.737 83.8813 809.391 82.7147 808.701 81.912C808.01 81.1093 807.049 80.708 805.817 80.708C804.491 80.708 803.437 81.1653 802.653 82.08C801.887 82.976 801.505 84.2267 801.505 85.832C801.505 87.456 801.887 88.7253 802.653 89.64C803.437 90.5547 804.519 91.012 805.901 91.012C806.741 91.012 807.469 90.844 808.085 90.508C808.701 90.1533 809.158 89.64 809.457 88.968H812.201C811.734 90.312 810.941 91.3667 809.821 92.132C808.719 92.8973 807.394 93.28 805.845 93.28ZM815.571 93V78.72H818.343V82.08H818.483V93H815.571ZM825.707 93V83.816C825.707 82.8267 825.455 82.0893 824.951 81.604C824.466 81.1187 823.738 80.876 822.767 80.876C821.927 80.876 821.181 81.0627 820.527 81.436C819.893 81.8093 819.389 82.3227 819.015 82.976C818.661 83.6293 818.483 84.404 818.483 85.3L818.119 81.884C818.586 80.82 819.305 79.98 820.275 79.364C821.246 78.748 822.375 78.44 823.663 78.44C825.194 78.44 826.398 78.8693 827.275 79.728C828.153 80.5867 828.591 81.7253 828.591 83.144V93H825.707ZM838.163 93.28C836.502 93.28 835.279 92.8973 834.495 92.132C833.73 91.348 833.347 90.2 833.347 88.688V75.444L836.231 74.352V88.716C836.231 89.4627 836.427 90.0133 836.819 90.368C837.211 90.7227 837.846 90.9 838.723 90.9C839.059 90.9 839.358 90.872 839.619 90.816C839.88 90.76 840.104 90.6947 840.291 90.62V92.972C840.086 93.0653 839.796 93.14 839.423 93.196C839.05 93.252 838.63 93.28 838.163 93.28ZM830.491 81.044V78.72H840.291V81.044H830.491ZM848.856 93.28C847.419 93.28 846.15 92.9627 845.048 92.328C843.966 91.6933 843.116 90.816 842.5 89.696C841.884 88.576 841.576 87.288 841.576 85.832C841.576 84.3573 841.875 83.0693 842.472 81.968C843.088 80.848 843.947 79.98 845.048 79.364C846.15 78.748 847.41 78.44 848.828 78.44C850.21 78.44 851.404 78.7387 852.412 79.336C853.439 79.9147 854.223 80.7267 854.764 81.772C855.324 82.8173 855.604 84.0587 855.604 85.496C855.604 85.72 855.595 85.9347 855.576 86.14C855.576 86.3267 855.558 86.5227 855.52 86.728H843.536V84.544H853.476L852.748 85.412C852.748 83.8813 852.403 82.7147 851.712 81.912C851.022 81.1093 850.06 80.708 848.828 80.708C847.503 80.708 846.448 81.1653 845.664 82.08C844.899 82.976 844.516 84.2267 844.516 85.832C844.516 87.456 844.899 88.7253 845.664 89.64C846.448 90.5547 847.531 91.012 848.912 91.012C849.752 91.012 850.48 90.844 851.096 90.508C851.712 90.1533 852.17 89.64 852.468 88.968H855.212C854.746 90.312 853.952 91.3667 852.832 92.132C851.731 92.8973 850.406 93.28 848.856 93.28ZM863.79 93.28C861.923 93.28 860.439 92.8693 859.338 92.048C858.236 91.2267 857.611 90.0693 857.462 88.576H860.15C860.28 89.3973 860.654 90.032 861.27 90.48C861.904 90.9093 862.763 91.124 863.846 91.124C864.798 91.124 865.526 90.956 866.03 90.62C866.534 90.284 866.786 89.808 866.786 89.192C866.786 88.744 866.636 88.3707 866.338 88.072C866.058 87.7547 865.498 87.4933 864.658 87.288L862.362 86.756C860.924 86.4013 859.851 85.8787 859.142 85.188C858.451 84.4787 858.106 83.6107 858.106 82.584C858.106 81.296 858.582 80.288 859.534 79.56C860.504 78.8133 861.83 78.44 863.51 78.44C865.171 78.44 866.506 78.8133 867.514 79.56C868.54 80.3067 869.119 81.352 869.25 82.696H866.562C866.45 82.024 866.123 81.5107 865.582 81.156C865.059 80.7827 864.34 80.596 863.426 80.596C862.567 80.596 861.904 80.7547 861.438 81.072C860.99 81.3707 860.766 81.7907 860.766 82.332C860.766 82.78 860.934 83.1533 861.27 83.452C861.624 83.7507 862.203 84.0027 863.006 84.208L865.358 84.796C866.72 85.132 867.747 85.6827 868.438 86.448C869.128 87.1947 869.474 88.1 869.474 89.164C869.474 90.452 868.97 91.46 867.962 92.188C866.972 92.916 865.582 93.28 863.79 93.28ZM883.856 93.28C882.419 93.28 881.15 92.9627 880.048 92.328C878.966 91.6933 878.116 90.816 877.5 89.696C876.884 88.576 876.576 87.288 876.576 85.832C876.576 84.3573 876.875 83.0693 877.472 81.968C878.088 80.848 878.947 79.98 880.048 79.364C881.15 78.748 882.41 78.44 883.828 78.44C885.21 78.44 886.404 78.7387 887.412 79.336C888.439 79.9147 889.223 80.7267 889.764 81.772C890.324 82.8173 890.604 84.0587 890.604 85.496C890.604 85.72 890.595 85.9347 890.576 86.14C890.576 86.3267 890.558 86.5227 890.52 86.728H878.536V84.544H888.476L887.748 85.412C887.748 83.8813 887.403 82.7147 886.712 81.912C886.022 81.1093 885.06 80.708 883.828 80.708C882.503 80.708 881.448 81.1653 880.664 82.08C879.899 82.976 879.516 84.2267 879.516 85.832C879.516 87.456 879.899 88.7253 880.664 89.64C881.448 90.5547 882.531 91.012 883.912 91.012C884.752 91.012 885.48 90.844 886.096 90.508C886.712 90.1533 887.17 89.64 887.468 88.968H890.212C889.746 90.312 888.952 91.3667 887.832 92.132C886.731 92.8973 885.406 93.28 883.856 93.28ZM899.135 93V72.84H907.675C909.131 72.84 910.372 73.0827 911.399 73.568C912.425 74.0533 913.209 74.744 913.751 75.64C914.311 76.536 914.591 77.6 914.591 78.832C914.591 80.0827 914.311 81.1653 913.751 82.08C913.209 82.976 912.416 83.676 911.371 84.18C910.344 84.684 909.112 84.936 907.675 84.936H901.403V82.472H907.535C908.86 82.472 909.868 82.1547 910.559 81.52C911.268 80.8853 911.623 79.9987 911.623 78.86C911.623 77.7027 911.277 76.816 910.587 76.2C909.896 75.584 908.879 75.276 907.535 75.276H902.103V93H899.135ZM922.985 93.28C921.548 93.28 920.279 92.9627 919.177 92.328C918.095 91.6933 917.245 90.816 916.629 89.696C916.013 88.576 915.705 87.288 915.705 85.832C915.705 84.3573 916.004 83.0693 916.601 81.968C917.217 80.848 918.076 79.98 919.177 79.364C920.279 78.748 921.539 78.44 922.957 78.44C924.339 78.44 925.533 78.7387 926.541 79.336C927.568 79.9147 928.352 80.7267 928.893 81.772C929.453 82.8173 929.733 84.0587 929.733 85.496C929.733 85.72 929.724 85.9347 929.705 86.14C929.705 86.3267 929.687 86.5227 929.649 86.728H917.665V84.544H927.605L926.877 85.412C926.877 83.8813 926.532 82.7147 925.841 81.912C925.151 81.1093 924.189 80.708 922.957 80.708C921.632 80.708 920.577 81.1653 919.793 82.08C919.028 82.976 918.645 84.2267 918.645 85.832C918.645 87.456 919.028 88.7253 919.793 89.64C920.577 90.5547 921.66 91.012 923.041 91.012C923.881 91.012 924.609 90.844 925.225 90.508C925.841 90.1533 926.299 89.64 926.597 88.968H929.341C928.875 90.312 928.081 91.3667 926.961 92.132C925.86 92.8973 924.535 93.28 922.985 93.28ZM932.712 93V78.72H935.484V82.276H935.624V93H932.712ZM935.624 85.552L935.26 82.164C935.596 80.9507 936.175 80.0267 936.996 79.392C937.817 78.7573 938.797 78.44 939.936 78.44C940.365 78.44 940.664 78.4773 940.832 78.552V81.296C940.739 81.2587 940.608 81.24 940.44 81.24C940.272 81.2213 940.067 81.212 939.824 81.212C938.424 81.212 937.369 81.576 936.66 82.304C935.969 83.032 935.624 84.1147 935.624 85.552ZM944.907 93V77.068C944.907 75.612 945.318 74.5013 946.139 73.736C946.96 72.952 948.192 72.56 949.835 72.56C950.208 72.56 950.516 72.5787 950.759 72.616C951.002 72.6533 951.216 72.7093 951.403 72.784V75.024C951.272 74.9867 951.095 74.9493 950.871 74.912C950.666 74.8747 950.432 74.856 950.171 74.856C949.35 74.856 948.752 75.0613 948.379 75.472C948.006 75.864 947.819 76.424 947.819 77.152V93H944.907ZM942.163 81.044V78.72H951.095V81.044H942.163ZM959.545 93.28C958.089 93.28 956.81 92.9627 955.709 92.328C954.608 91.6747 953.749 90.788 953.133 89.668C952.517 88.5293 952.209 87.2413 952.209 85.804C952.209 84.348 952.517 83.0693 953.133 81.968C953.768 80.8667 954.626 80.008 955.709 79.392C956.81 78.7573 958.089 78.44 959.545 78.44C961.02 78.44 962.308 78.7573 963.409 79.392C964.51 80.008 965.36 80.8667 965.957 81.968C966.573 83.0693 966.881 84.348 966.881 85.804C966.881 87.2413 966.573 88.5293 965.957 89.668C965.36 90.788 964.51 91.6747 963.409 92.328C962.308 92.9627 961.02 93.28 959.545 93.28ZM959.545 90.9C960.422 90.9 961.178 90.6853 961.813 90.256C962.466 89.8267 962.98 89.2293 963.353 88.464C963.726 87.6987 963.913 86.8027 963.913 85.776C963.913 84.2453 963.502 83.0413 962.681 82.164C961.878 81.268 960.833 80.82 959.545 80.82C958.276 80.82 957.23 81.268 956.409 82.164C955.606 83.06 955.205 84.264 955.205 85.776C955.205 86.8027 955.382 87.6987 955.737 88.464C956.11 89.2293 956.624 89.8267 957.277 90.256C957.949 90.6853 958.705 90.9 959.545 90.9ZM969.872 93V78.72H972.644V82.276H972.784V93H969.872ZM972.784 85.552L972.42 82.164C972.756 80.9507 973.335 80.0267 974.156 79.392C974.977 78.7573 975.957 78.44 977.096 78.44C977.525 78.44 977.824 78.4773 977.992 78.552V81.296C977.899 81.2587 977.768 81.24 977.6 81.24C977.432 81.2213 977.227 81.212 976.984 81.212C975.584 81.212 974.529 81.576 973.82 82.304C973.129 83.032 972.784 84.1147 972.784 85.552ZM980.591 93V78.72H983.363V82.08H983.503V93H980.591ZM990.223 93V83.676C990.223 82.7053 989.999 81.996 989.551 81.548C989.103 81.1 988.459 80.876 987.619 80.876C986.835 80.876 986.126 81.0627 985.491 81.436C984.875 81.7907 984.39 82.2947 984.035 82.948C983.68 83.5827 983.503 84.3387 983.503 85.216L983.139 81.884C983.606 80.82 984.306 79.98 985.239 79.364C986.191 78.748 987.255 78.44 988.431 78.44C989.85 78.44 990.979 78.8507 991.819 79.672C992.678 80.4933 993.107 81.576 993.107 82.92V93H990.223ZM999.855 93V83.676C999.855 82.7053 999.622 81.996 999.155 81.548C998.707 81.1 998.063 80.876 997.223 80.876C996.458 80.876 995.758 81.0627 995.123 81.436C994.507 81.7907 994.012 82.2947 993.639 82.948C993.284 83.5827 993.107 84.3387 993.107 85.216L992.519 81.884C993.004 80.82 993.732 79.98 994.703 79.364C995.692 78.748 996.794 78.44 998.007 78.44C999.444 78.44 1000.59 78.86 1001.45 79.7C1002.31 80.5213 1002.74 81.6227 1002.74 83.004V93H999.855ZM1015.33 93C1015.24 92.6453 1015.17 92.2533 1015.14 91.824C1015.12 91.3947 1015.11 90.872 1015.11 90.256H1014.97V83.452C1014.97 82.5373 1014.74 81.856 1014.27 81.408C1013.82 80.9413 1013.1 80.708 1012.11 80.708C1011.16 80.708 1010.4 80.8947 1009.82 81.268C1009.26 81.6413 1008.93 82.1733 1008.84 82.864H1006.07C1006.2 81.52 1006.8 80.4467 1007.89 79.644C1008.97 78.8413 1010.41 78.44 1012.23 78.44C1014.09 78.44 1015.49 78.8787 1016.43 79.756C1017.36 80.6147 1017.83 81.884 1017.83 83.564V90.256C1017.83 90.6853 1017.85 91.124 1017.91 91.572C1017.97 92.02 1018.05 92.496 1018.16 93H1015.33ZM1010.41 93.28C1008.95 93.28 1007.79 92.9253 1006.93 92.216C1006.07 91.488 1005.65 90.508 1005.65 89.276C1005.65 88.0067 1006.09 87.008 1006.99 86.28C1007.9 85.5333 1009.21 85.0293 1010.91 84.768L1015.61 84.012V86.056L1011.36 86.728C1010.41 86.8773 1009.69 87.1293 1009.2 87.484C1008.73 87.8387 1008.5 88.352 1008.5 89.024C1008.5 89.6773 1008.72 90.172 1009.15 90.508C1009.59 90.8253 1010.24 90.984 1011.08 90.984C1012.2 90.984 1013.12 90.7133 1013.85 90.172C1014.6 89.6307 1014.97 88.9493 1014.97 88.128L1015.33 90.2C1015 91.1893 1014.4 91.9547 1013.54 92.496C1012.68 93.0187 1011.64 93.28 1010.41 93.28ZM1021.77 93V78.72H1024.54V82.08H1024.68V93H1021.77ZM1031.91 93V83.816C1031.91 82.8267 1031.65 82.0893 1031.15 81.604C1030.67 81.1187 1029.94 80.876 1028.97 80.876C1028.13 80.876 1027.38 81.0627 1026.73 81.436C1026.09 81.8093 1025.59 82.3227 1025.21 82.976C1024.86 83.6293 1024.68 84.404 1024.68 85.3L1024.32 81.884C1024.79 80.82 1025.5 79.98 1026.47 79.364C1027.45 78.748 1028.57 78.44 1029.86 78.44C1031.39 78.44 1032.6 78.8693 1033.47 79.728C1034.35 80.5867 1034.79 81.7253 1034.79 83.144V93H1031.91ZM1044.69 93.28C1043.32 93.28 1042.11 92.9627 1041.05 92.328C1039.98 91.6747 1039.14 90.788 1038.53 89.668C1037.93 88.548 1037.63 87.2693 1037.63 85.832C1037.63 84.3947 1037.93 83.1253 1038.53 82.024C1039.14 80.904 1039.98 80.0267 1041.05 79.392C1042.11 78.7573 1043.32 78.44 1044.66 78.44C1045.8 78.44 1046.82 78.6547 1047.71 79.084C1048.61 79.5133 1049.34 80.1107 1049.92 80.876C1050.5 81.6413 1050.88 82.5467 1051.04 83.592H1048.3C1048.11 82.752 1047.7 82.08 1047.07 81.576C1046.45 81.072 1045.67 80.82 1044.72 80.82C1043.89 80.82 1043.18 81.0253 1042.56 81.436C1041.94 81.8467 1041.47 82.4253 1041.13 83.172C1040.8 83.9187 1040.63 84.8053 1040.63 85.832C1040.63 86.84 1040.8 87.7267 1041.13 88.492C1041.47 89.2573 1041.94 89.8547 1042.56 90.284C1043.18 90.6947 1043.9 90.9 1044.74 90.9C1045.66 90.9 1046.43 90.6573 1047.07 90.172C1047.72 89.668 1048.14 88.996 1048.33 88.156H1051.07C1050.88 89.1827 1050.49 90.0787 1049.9 90.844C1049.32 91.6093 1048.58 92.2067 1047.68 92.636C1046.79 93.0653 1045.79 93.28 1044.69 93.28ZM1060.06 93.28C1058.62 93.28 1057.35 92.9627 1056.25 92.328C1055.17 91.6933 1054.32 90.816 1053.7 89.696C1053.09 88.576 1052.78 87.288 1052.78 85.832C1052.78 84.3573 1053.08 83.0693 1053.68 81.968C1054.29 80.848 1055.15 79.98 1056.25 79.364C1057.35 78.748 1058.61 78.44 1060.03 78.44C1061.41 78.44 1062.61 78.7387 1063.62 79.336C1064.64 79.9147 1065.43 80.7267 1065.97 81.772C1066.53 82.8173 1066.81 84.0587 1066.81 85.496C1066.81 85.72 1066.8 85.9347 1066.78 86.14C1066.78 86.3267 1066.76 86.5227 1066.72 86.728H1054.74V84.544H1064.68L1063.95 85.412C1063.95 83.8813 1063.61 82.7147 1062.92 81.912C1062.22 81.1093 1061.26 80.708 1060.03 80.708C1058.71 80.708 1057.65 81.1653 1056.87 82.08C1056.1 82.976 1055.72 84.2267 1055.72 85.832C1055.72 87.456 1056.1 88.7253 1056.87 89.64C1057.65 90.5547 1058.73 91.012 1060.12 91.012C1060.96 91.012 1061.68 90.844 1062.3 90.508C1062.92 90.1533 1063.37 89.64 1063.67 88.968H1066.42C1065.95 90.312 1065.16 91.3667 1064.04 92.132C1062.93 92.8973 1061.61 93.28 1060.06 93.28ZM1085.61 93V89.724L1085.89 89.808C1085.59 90.872 1084.98 91.7213 1084.05 92.356C1083.11 92.972 1081.99 93.28 1080.69 93.28C1079.4 93.28 1078.27 92.972 1077.3 92.356C1076.35 91.74 1075.6 90.8813 1075.06 89.78C1074.53 88.6787 1074.27 87.3907 1074.27 85.916C1074.27 84.4227 1074.54 83.116 1075.09 81.996C1075.63 80.876 1076.38 80.008 1077.35 79.392C1078.32 78.776 1079.46 78.468 1080.77 78.468C1082.13 78.468 1083.25 78.7947 1084.13 79.448C1085.03 80.0827 1085.61 80.9787 1085.89 82.136L1085.5 82.192V72.84H1088.39V93H1085.61ZM1081.41 90.844C1082.7 90.844 1083.72 90.4053 1084.47 89.528C1085.21 88.632 1085.59 87.4 1085.59 85.832C1085.59 84.3013 1085.2 83.0973 1084.44 82.22C1083.69 81.324 1082.67 80.876 1081.39 80.876C1080.12 80.876 1079.11 81.324 1078.36 82.22C1077.63 83.0973 1077.27 84.3293 1077.27 85.916C1077.27 87.4653 1077.63 88.6787 1078.36 89.556C1079.11 90.4147 1080.13 90.844 1081.41 90.844ZM1098.64 93.28C1097.2 93.28 1095.93 92.9627 1094.83 92.328C1093.75 91.6933 1092.9 90.816 1092.29 89.696C1091.67 88.576 1091.36 87.288 1091.36 85.832C1091.36 84.3573 1091.66 83.0693 1092.26 81.968C1092.87 80.848 1093.73 79.98 1094.83 79.364C1095.93 78.748 1097.19 78.44 1098.61 78.44C1099.99 78.44 1101.19 78.7387 1102.2 79.336C1103.22 79.9147 1104.01 80.7267 1104.55 81.772C1105.11 82.8173 1105.39 84.0587 1105.39 85.496C1105.39 85.72 1105.38 85.9347 1105.36 86.14C1105.36 86.3267 1105.34 86.5227 1105.31 86.728H1093.32V84.544H1103.26L1102.53 85.412C1102.53 83.8813 1102.19 82.7147 1101.5 81.912C1100.81 81.1093 1099.85 80.708 1098.61 80.708C1097.29 80.708 1096.23 81.1653 1095.45 82.08C1094.68 82.976 1094.3 84.2267 1094.3 85.832C1094.3 87.456 1094.68 88.7253 1095.45 89.64C1096.23 90.5547 1097.32 91.012 1098.7 91.012C1099.54 91.012 1100.27 90.844 1100.88 90.508C1101.5 90.1533 1101.95 89.64 1102.25 88.968H1105C1104.53 90.312 1103.74 91.3667 1102.62 92.132C1101.52 92.8973 1100.19 93.28 1098.64 93.28ZM1122.8 93.28C1121.4 93.28 1120.1 93.028 1118.9 92.524C1117.71 92.0013 1116.67 91.2827 1115.8 90.368C1114.94 89.4347 1114.26 88.3333 1113.78 87.064C1113.29 85.7947 1113.05 84.404 1113.05 82.892C1113.05 81.38 1113.28 79.9987 1113.75 78.748C1114.24 77.4787 1114.91 76.3867 1115.77 75.472C1116.64 74.5387 1117.68 73.82 1118.88 73.316C1120.07 72.812 1121.37 72.56 1122.77 72.56C1124.34 72.56 1125.74 72.8773 1127 73.512C1128.25 74.128 1129.26 75.0053 1130.05 76.144C1130.85 77.2827 1131.34 78.608 1131.53 80.12H1128.62C1128.38 78.5333 1127.73 77.3013 1126.69 76.424C1125.66 75.528 1124.36 75.08 1122.8 75.08C1121.47 75.08 1120.29 75.4067 1119.27 76.06C1118.26 76.6947 1117.48 77.6 1116.92 78.776C1116.36 79.9333 1116.08 81.3053 1116.08 82.892C1116.08 84.46 1116.36 85.8413 1116.92 87.036C1117.49 88.212 1118.29 89.1267 1119.3 89.78C1120.3 90.4333 1121.47 90.76 1122.8 90.76C1124.36 90.76 1125.67 90.3213 1126.72 89.444C1127.78 88.548 1128.42 87.3067 1128.65 85.72H1131.59C1131.38 87.2507 1130.88 88.5853 1130.08 89.724C1129.27 90.844 1128.25 91.7213 1127 92.356C1125.76 92.972 1124.36 93.28 1122.8 93.28ZM1143.14 93C1143.04 92.6453 1142.98 92.2533 1142.94 91.824C1142.92 91.3947 1142.91 90.872 1142.91 90.256H1142.77V83.452C1142.77 82.5373 1142.54 81.856 1142.07 81.408C1141.63 80.9413 1140.91 80.708 1139.92 80.708C1138.97 80.708 1138.2 80.8947 1137.62 81.268C1137.06 81.6413 1136.74 82.1733 1136.64 82.864H1133.87C1134 81.52 1134.61 80.4467 1135.69 79.644C1136.77 78.8413 1138.22 78.44 1140.03 78.44C1141.9 78.44 1143.3 78.8787 1144.23 79.756C1145.16 80.6147 1145.63 81.884 1145.63 83.564V90.256C1145.63 90.6853 1145.66 91.124 1145.71 91.572C1145.77 92.02 1145.85 92.496 1145.97 93H1143.14ZM1138.21 93.28C1136.75 93.28 1135.6 92.9253 1134.74 92.216C1133.88 91.488 1133.45 90.508 1133.45 89.276C1133.45 88.0067 1133.9 87.008 1134.79 86.28C1135.71 85.5333 1137.02 85.0293 1138.71 84.768L1143.42 84.012V86.056L1139.16 86.728C1138.21 86.8773 1137.49 87.1293 1137.01 87.484C1136.54 87.8387 1136.31 88.352 1136.31 89.024C1136.31 89.6773 1136.52 90.172 1136.95 90.508C1137.4 90.8253 1138.04 90.984 1138.88 90.984C1140 90.984 1140.93 90.7133 1141.65 90.172C1142.4 89.6307 1142.77 88.9493 1142.77 88.128L1143.14 90.2C1142.8 91.1893 1142.2 91.9547 1141.35 92.496C1140.49 93.0187 1139.44 93.28 1138.21 93.28ZM1149.58 93V78.72H1152.35V82.08H1152.49V93H1149.58ZM1159.21 93V83.676C1159.21 82.7053 1158.98 81.996 1158.54 81.548C1158.09 81.1 1157.44 80.876 1156.6 80.876C1155.82 80.876 1155.11 81.0627 1154.48 81.436C1153.86 81.7907 1153.37 82.2947 1153.02 82.948C1152.66 83.5827 1152.49 84.3387 1152.49 85.216L1152.12 81.884C1152.59 80.82 1153.29 79.98 1154.22 79.364C1155.18 78.748 1156.24 78.44 1157.42 78.44C1158.83 78.44 1159.96 78.8507 1160.8 79.672C1161.66 80.4933 1162.09 81.576 1162.09 82.92V93H1159.21ZM1168.84 93V83.676C1168.84 82.7053 1168.61 81.996 1168.14 81.548C1167.69 81.1 1167.05 80.876 1166.21 80.876C1165.44 80.876 1164.74 81.0627 1164.11 81.436C1163.49 81.7907 1163 82.2947 1162.62 82.948C1162.27 83.5827 1162.09 84.3387 1162.09 85.216L1161.5 81.884C1161.99 80.82 1162.72 79.98 1163.69 79.364C1164.68 78.748 1165.78 78.44 1166.99 78.44C1168.43 78.44 1169.58 78.86 1170.44 79.7C1171.29 80.5213 1171.72 81.6227 1171.72 83.004V93H1168.84ZM1183.25 93.252C1181.91 93.252 1180.79 92.9347 1179.89 92.3C1179.01 91.6467 1178.43 90.7413 1178.15 89.584L1178.55 89.528V98.74H1175.63V78.72H1178.41V81.996L1178.13 81.912C1178.42 80.8293 1179.06 79.98 1180.03 79.364C1181 78.748 1182.14 78.44 1183.45 78.44C1184.73 78.44 1185.84 78.748 1186.78 79.364C1187.73 79.98 1188.46 80.8387 1188.96 81.94C1189.48 83.0413 1189.75 84.3293 1189.75 85.804C1189.75 87.2973 1189.48 88.604 1188.93 89.724C1188.39 90.844 1187.64 91.712 1186.67 92.328C1185.7 92.944 1184.56 93.252 1183.25 93.252ZM1182.63 90.844C1183.9 90.844 1184.91 90.396 1185.66 89.5C1186.4 88.604 1186.78 87.372 1186.78 85.804C1186.78 84.2547 1186.4 83.0507 1185.66 82.192C1184.91 81.3147 1183.89 80.876 1182.61 80.876C1181.34 80.876 1180.32 81.324 1179.55 82.22C1178.81 83.0973 1178.43 84.32 1178.43 85.888C1178.43 87.4187 1178.81 88.632 1179.55 89.528C1180.32 90.4053 1181.35 90.844 1182.63 90.844ZM1201.68 93C1201.59 92.6453 1201.52 92.2533 1201.49 91.824C1201.47 91.3947 1201.46 90.872 1201.46 90.256H1201.32V83.452C1201.32 82.5373 1201.08 81.856 1200.62 81.408C1200.17 80.9413 1199.45 80.708 1198.46 80.708C1197.51 80.708 1196.74 80.8947 1196.17 81.268C1195.61 81.6413 1195.28 82.1733 1195.19 82.864H1192.41C1192.54 81.52 1193.15 80.4467 1194.23 79.644C1195.32 78.8413 1196.76 78.44 1198.57 78.44C1200.44 78.44 1201.84 78.8787 1202.77 79.756C1203.71 80.6147 1204.17 81.884 1204.17 83.564V90.256C1204.17 90.6853 1204.2 91.124 1204.26 91.572C1204.31 92.02 1204.4 92.496 1204.51 93H1201.68ZM1196.75 93.28C1195.3 93.28 1194.14 92.9253 1193.28 92.216C1192.42 91.488 1191.99 90.508 1191.99 89.276C1191.99 88.0067 1192.44 87.008 1193.34 86.28C1194.25 85.5333 1195.56 85.0293 1197.26 84.768L1201.96 84.012V86.056L1197.71 86.728C1196.75 86.8773 1196.03 87.1293 1195.55 87.484C1195.08 87.8387 1194.85 88.352 1194.85 89.024C1194.85 89.6773 1195.06 90.172 1195.49 90.508C1195.94 90.8253 1196.59 90.984 1197.43 90.984C1198.55 90.984 1199.47 90.7133 1200.2 90.172C1200.94 89.6307 1201.32 88.9493 1201.32 88.128L1201.68 90.2C1201.35 91.1893 1200.75 91.9547 1199.89 92.496C1199.03 93.0187 1197.99 93.28 1196.75 93.28ZM1208.12 93V78.72H1210.89V82.08H1211.03V93H1208.12ZM1218.25 93V83.816C1218.25 82.8267 1218 82.0893 1217.5 81.604C1217.01 81.1187 1216.28 80.876 1215.31 80.876C1214.47 80.876 1213.73 81.0627 1213.07 81.436C1212.44 81.8093 1211.94 82.3227 1211.56 82.976C1211.21 83.6293 1211.03 84.404 1211.03 85.3L1210.67 81.884C1211.13 80.82 1211.85 79.98 1212.82 79.364C1213.79 78.748 1214.92 78.44 1216.21 78.44C1217.74 78.44 1218.94 78.8693 1219.82 79.728C1220.7 80.5867 1221.14 81.7253 1221.14 83.144V93H1218.25ZM1225.1 93V72.84H1228.01V93H1225.1ZM1235.23 93V83.816C1235.23 82.8267 1234.98 82.0893 1234.48 81.604C1233.99 81.1187 1233.27 80.876 1232.29 80.876C1231.45 80.876 1230.71 81.0627 1230.05 81.436C1229.42 81.8093 1228.92 82.3227 1228.54 82.976C1228.19 83.6293 1228.01 84.404 1228.01 85.3L1227.65 81.884C1228.11 80.82 1228.83 79.98 1229.8 79.364C1230.77 78.748 1231.9 78.44 1233.19 78.44C1234.72 78.44 1235.93 78.8693 1236.8 79.728C1237.68 80.5867 1238.12 81.7253 1238.12 83.144V93H1235.23ZM1250.76 93C1250.67 92.6453 1250.6 92.2533 1250.57 91.824C1250.55 91.3947 1250.54 90.872 1250.54 90.256H1250.4V83.452C1250.4 82.5373 1250.17 81.856 1249.7 81.408C1249.25 80.9413 1248.53 80.708 1247.54 80.708C1246.59 80.708 1245.83 80.8947 1245.25 81.268C1244.69 81.6413 1244.36 82.1733 1244.27 82.864H1241.5C1241.63 81.52 1242.23 80.4467 1243.32 79.644C1244.4 78.8413 1245.84 78.44 1247.66 78.44C1249.52 78.44 1250.92 78.8787 1251.86 79.756C1252.79 80.6147 1253.26 81.884 1253.26 83.564V90.256C1253.26 90.6853 1253.28 91.124 1253.34 91.572C1253.4 92.02 1253.48 92.496 1253.59 93H1250.76ZM1245.84 93.28C1244.38 93.28 1243.22 92.9253 1242.36 92.216C1241.5 91.488 1241.08 90.508 1241.08 89.276C1241.08 88.0067 1241.52 87.008 1242.42 86.28C1243.33 85.5333 1244.64 85.0293 1246.34 84.768L1251.04 84.012V86.056L1246.79 86.728C1245.84 86.8773 1245.12 87.1293 1244.63 87.484C1244.16 87.8387 1243.93 88.352 1243.93 89.024C1243.93 89.6773 1244.15 90.172 1244.58 90.508C1245.02 90.8253 1245.67 90.984 1246.51 90.984C1247.63 90.984 1248.55 90.7133 1249.28 90.172C1250.03 89.6307 1250.4 88.9493 1250.4 88.128L1250.76 90.2C1250.43 91.1893 1249.83 91.9547 1248.97 92.496C1248.11 93.0187 1247.07 93.28 1245.84 93.28ZM1262.19 93.28C1260.32 93.28 1258.84 92.8693 1257.74 92.048C1256.63 91.2267 1256.01 90.0693 1255.86 88.576H1258.55C1258.68 89.3973 1259.05 90.032 1259.67 90.48C1260.3 90.9093 1261.16 91.124 1262.24 91.124C1263.2 91.124 1263.92 90.956 1264.43 90.62C1264.93 90.284 1265.18 89.808 1265.18 89.192C1265.18 88.744 1265.03 88.3707 1264.74 88.072C1264.46 87.7547 1263.9 87.4933 1263.06 87.288L1260.76 86.756C1259.32 86.4013 1258.25 85.8787 1257.54 85.188C1256.85 84.4787 1256.5 83.6107 1256.5 82.584C1256.5 81.296 1256.98 80.288 1257.93 79.56C1258.9 78.8133 1260.23 78.44 1261.91 78.44C1263.57 78.44 1264.9 78.8133 1265.91 79.56C1266.94 80.3067 1267.52 81.352 1267.65 82.696H1264.96C1264.85 82.024 1264.52 81.5107 1263.98 81.156C1263.46 80.7827 1262.74 80.596 1261.82 80.596C1260.97 80.596 1260.3 80.7547 1259.84 81.072C1259.39 81.3707 1259.16 81.7907 1259.16 82.332C1259.16 82.78 1259.33 83.1533 1259.67 83.452C1260.02 83.7507 1260.6 84.0027 1261.4 84.208L1263.76 84.796C1265.12 85.132 1266.15 85.6827 1266.84 86.448C1267.53 87.1947 1267.87 88.1 1267.87 89.164C1267.87 90.452 1267.37 91.46 1266.36 92.188C1265.37 92.916 1263.98 93.28 1262.19 93.28Z" fill="black"/>
<g filter="url(#filter0_d_0_1)">
<path d="M981 127C981 120.373 986.373 115 993 115H1248C1254.63 115 1260 120.373 1260 127V155H981V127Z" fill="#F8F9FA"/>
</g>
<g filter="url(#filter1_d_0_1)">
<path d="M689 126C689 119.925 693.925 115 700 115H956C962.627 115 968 120.373 968 127V155H689V126Z" fill="#F8F9FA"/>
</g>
<g filter="url(#filter2_d_0_1)">
<path d="M397 126C397 119.925 401.925 115 408 115H664C670.627 115 676 120.373 676 127V155H397V126Z" fill="#F8F9FA"/>
</g>
<g filter="url(#filter3_d_0_1)">
<path d="M105 126C105 119.925 109.925 115 116 115H372C378.627 115 384 120.373 384 127V155H105V126Z" fill="#A3D2F3"/>
</g>
<g filter="url(#filter4_d_0_1)">
<path d="M20 166C20 159.925 24.9249 155 31 155H1260V689C1260 695.075 1255.08 700 1249 700H31C24.9249 700 20 695.075 20 689V166Z" fill="#F8F9FA"/>
<g filter="url(#filter5_d_0_1)">
<rect x="674" y="318" width="566" height="277" rx="13" fill="white"/>
</g>
<g filter="url(#filter6_d_0_1)">
<rect x="674" y="175" width="273" height="123" rx="13" fill="white"/>
</g>
<g filter="url(#filter7_d_0_1)">
<rect x="967" y="175" width="273" height="123" rx="13" fill="white"/>
</g>
<g filter="url(#filter8_d_0_1)">
<rect x="40" y="615" width="1200" height="65" rx="13" fill="white"/>
</g>
<g filter="url(#filter9_d_0_1)">
<rect x="40" y="395" width="297" height="200" rx="13" fill="white"/>
</g>
<g filter="url(#filter10_d_0_1)">
<rect x="357" y="395" width="297" height="200" rx="13" fill="white"/>
</g>
<g filter="url(#filter11_d_0_1)">
<rect x="40" y="175" width="614" height="200" rx="13" fill="white"/>
</g>
</g>
<defs>
<filter id="filter0_d_0_1" x="976.5" y="114.5" width="290" height="51" filterUnits="userSpaceOnUse" color-interpolation-filters="sRGB">
<feFlood flood-opacity="0" result="BackgroundImageFix"/>
<feColorMatrix in="SourceAlpha" type="matrix" values="0 0 0 0 0 0 0 0 0 0 0 0 0 0 0 0 0 0 127 0" result="hardAlpha"/>
<feOffset dx="1" dy="5"/>
<feGaussianBlur stdDeviation="2.75"/>
<feComposite in2="hardAlpha" operator="out"/>
<feColorMatrix type="matrix" values="0 0 0 0 0 0 0 0 0 0 0 0 0 0 0 0 0 0 0.25 0"/>
<feBlend mode="normal" in2="BackgroundImageFix" result="effect1_dropShadow_0_1"/>
<feBlend mode="normal" in="SourceGraphic" in2="effect1_dropShadow_0_1" result="shape"/>
</filter>
<filter id="filter1_d_0_1" x="684.5" y="109.5" width="292" height="53" filterUnits="userSpaceOnUse" color-interpolation-filters="sRGB">
<feFlood flood-opacity="0" result="BackgroundImageFix"/>
<feColorMatrix in="SourceAlpha" type="matrix" values="0 0 0 0 0 0 0 0 0 0 0 0 0 0 0 0 0 0 127 0" result="hardAlpha"/>
<feOffset dx="2" dy="1"/>
<feGaussianBlur stdDeviation="3.25"/>
<feComposite in2="hardAlpha" operator="out"/>
<feColorMatrix type="matrix" values="0 0 0 0 0 0 0 0 0 0 0 0 0 0 0 0 0 0 0.25 0"/>
<feBlend mode="normal" in2="BackgroundImageFix" result="effect1_dropShadow_0_1"/>
<feBlend mode="normal" in="SourceGraphic" in2="effect1_dropShadow_0_1" result="shape"/>
</filter>
<filter id="filter2_d_0_1" x="390.3" y="108.3" width="294.4" height="55.4" filterUnits="userSpaceOnUse" color-interpolation-filters="sRGB">
<feFlood flood-opacity="0" result="BackgroundImageFix"/>
<feColorMatrix in="SourceAlpha" type="matrix" values="0 0 0 0 0 0 0 0 0 0 0 0 0 0 0 0 0 0 127 0" result="hardAlpha"/>
<feOffset dx="1" dy="1"/>
<feGaussianBlur stdDeviation="3.85"/>
<feComposite in2="hardAlpha" operator="out"/>
<feColorMatrix type="matrix" values="0 0 0 0 0 0 0 0 0 0 0 0 0 0 0 0 0 0 0.25 0"/>
<feBlend mode="normal" in2="BackgroundImageFix" result="effect1_dropShadow_0_1"/>
<feBlend mode="normal" in="SourceGraphic" in2="effect1_dropShadow_0_1" result="shape"/>
</filter>
<filter id="filter3_d_0_1" x="100" y="109" width="293" height="54" filterUnits="userSpaceOnUse" color-interpolation-filters="sRGB">
<feFlood flood-opacity="0" result="BackgroundImageFix"/>
<feColorMatrix in="SourceAlpha" type="matrix" values="0 0 0 0 0 0 0 0 0 0 0 0 0 0 0 0 0 0 127 0" result="hardAlpha"/>
<feOffset dx="2" dy="1"/>
<feGaussianBlur stdDeviation="3.5"/>
<feComposite in2="hardAlpha" operator="out"/>
<feColorMatrix type="matrix" values="0 0 0 0 0 0 0 0 0 0 0 0 0 0 0 0 0 0 0.25 0"/>
<feBlend mode="normal" in2="BackgroundImageFix" result="effect1_dropShadow_0_1"/>
<feBlend mode="normal" in="SourceGraphic" in2="effect1_dropShadow_0_1" result="shape"/>
</filter>
<filter id="filter4_d_0_1" x="15.5" y="153.5" width="1251" height="556" filterUnits="userSpaceOnUse" color-interpolation-filters="sRGB">
<feFlood flood-opacity="0" result="BackgroundImageFix"/>
<feColorMatrix in="SourceAlpha" type="matrix" values="0 0 0 0 0 0 0 0 0 0 0 0 0 0 0 0 0 0 127 0" result="hardAlpha"/>
<feOffset dx="1" dy="4"/>
<feGaussianBlur stdDeviation="2.75"/>
<feComposite in2="hardAlpha" operator="out"/>
<feColorMatrix type="matrix" values="0 0 0 0 0 0 0 0 0 0 0 0 0 0 0 0 0 0 0.25 0"/>
<feBlend mode="normal" in2="BackgroundImageFix" result="effect1_dropShadow_0_1"/>
<feBlend mode="normal" in="SourceGraphic" in2="effect1_dropShadow_0_1" result="shape"/>
</filter>
<filter id="filter5_d_0_1" x="670.5" y="314.5" width="577" height="288" filterUnits="userSpaceOnUse" color-interpolation-filters="sRGB">
<feFlood flood-opacity="0" result="BackgroundImageFix"/>
<feColorMatrix in="SourceAlpha" type="matrix" values="0 0 0 0 0 0 0 0 0 0 0 0 0 0 0 0 0 0 127 0" result="hardAlpha"/>
<feMorphology radius="2" operator="erode" in="SourceAlpha" result="effect1_dropShadow_0_1"/>
<feOffset dx="2" dy="2"/>
<feGaussianBlur stdDeviation="3.75"/>
<feComposite in2="hardAlpha" operator="out"/>
<feColorMatrix type="matrix" values="0 0 0 0 0 0 0 0 0 0 0 0 0 0 0 0 0 0 0.25 0"/>
<feBlend mode="normal" in2="BackgroundImageFix" result="effect1_dropShadow_0_1"/>
<feBlend mode="normal" in="SourceGraphic" in2="effect1_dropShadow_0_1" result="shape"/>
</filter>
<filter id="filter6_d_0_1" x="670.5" y="171.5" width="284" height="134" filterUnits="userSpaceOnUse" color-interpolation-filters="sRGB">
<feFlood flood-opacity="0" result="BackgroundImageFix"/>
<feColorMatrix in="SourceAlpha" type="matrix" values="0 0 0 0 0 0 0 0 0 0 0 0 0 0 0 0 0 0 127 0" result="hardAlpha"/>
<feMorphology radius="2" operator="erode" in="SourceAlpha" result="effect1_dropShadow_0_1"/>
<feOffset dx="2" dy="2"/>
<feGaussianBlur stdDeviation="3.75"/>
<feComposite in2="hardAlpha" operator="out"/>
<feColorMatrix type="matrix" values="0 0 0 0 0 0 0 0 0 0 0 0 0 0 0 0 0 0 0.25 0"/>
<feBlend mode="normal" in2="BackgroundImageFix" result="effect1_dropShadow_0_1"/>
<feBlend mode="normal" in="SourceGraphic" in2="effect1_dropShadow_0_1" result="shape"/>
</filter>
<filter id="filter7_d_0_1" x="963.5" y="171.5" width="284" height="134" filterUnits="userSpaceOnUse" color-interpolation-filters="sRGB">
<feFlood flood-opacity="0" result="BackgroundImageFix"/>
<feColorMatrix in="SourceAlpha" type="matrix" values="0 0 0 0 0 0 0 0 0 0 0 0 0 0 0 0 0 0 127 0" result="hardAlpha"/>
<feMorphology radius="2" operator="erode" in="SourceAlpha" result="effect1_dropShadow_0_1"/>
<feOffset dx="2" dy="2"/>
<feGaussianBlur stdDeviation="3.75"/>
<feComposite in2="hardAlpha" operator="out"/>
<feColorMatrix type="matrix" values="0 0 0 0 0 0 0 0 0 0 0 0 0 0 0 0 0 0 0.25 0"/>
<feBlend mode="normal" in2="BackgroundImageFix" result="effect1_dropShadow_0_1"/>
<feBlend mode="normal" in="SourceGraphic" in2="effect1_dropShadow_0_1" result="shape"/>
</filter>
<filter id="filter8_d_0_1" x="36.5" y="611.5" width="1211" height="76" filterUnits="userSpaceOnUse" color-interpolation-filters="sRGB">
<feFlood flood-opacity="0" result="BackgroundImageFix"/>
<feColorMatrix in="SourceAlpha" type="matrix" values="0 0 0 0 0 0 0 0 0 0 0 0 0 0 0 0 0 0 127 0" result="hardAlpha"/>
<feMorphology radius="2" operator="erode" in="SourceAlpha" result="effect1_dropShadow_0_1"/>
<feOffset dx="2" dy="2"/>
<feGaussianBlur stdDeviation="3.75"/>
<feComposite in2="hardAlpha" operator="out"/>
<feColorMatrix type="matrix" values="0 0 0 0 0 0 0 0 0 0 0 0 0 0 0 0 0 0 0.25 0"/>
<feBlend mode="normal" in2="BackgroundImageFix" result="effect1_dropShadow_0_1"/>
<feBlend mode="normal" in="SourceGraphic" in2="effect1_dropShadow_0_1" result="shape"/>
</filter>
<filter id="filter9_d_0_1" x="36.5" y="391.5" width="308" height="211" filterUnits="userSpaceOnUse" color-interpolation-filters="sRGB">
<feFlood flood-opacity="0" result="BackgroundImageFix"/>
<feColorMatrix in="SourceAlpha" type="matrix" values="0 0 0 0 0 0 0 0 0 0 0 0 0 0 0 0 0 0 127 0" result="hardAlpha"/>
<feMorphology radius="2" operator="erode" in="SourceAlpha" result="effect1_dropShadow_0_1"/>
<feOffset dx="2" dy="2"/>
<feGaussianBlur stdDeviation="3.75"/>
<feComposite in2="hardAlpha" operator="out"/>
<feColorMatrix type="matrix" values="0 0 0 0 0 0 0 0 0 0 0 0 0 0 0 0 0 0 0.25 0"/>
<feBlend mode="normal" in2="BackgroundImageFix" result="effect1_dropShadow_0_1"/>
<feBlend mode="normal" in="SourceGraphic" in2="effect1_dropShadow_0_1" result="shape"/>
</filter>
<filter id="filter10_d_0_1" x="353.5" y="391.5" width="308" height="211" filterUnits="userSpaceOnUse" color-interpolation-filters="sRGB">
<feFlood flood-opacity="0" result="BackgroundImageFix"/>
<feColorMatrix in="SourceAlpha" type="matrix" values="0 0 0 0 0 0 0 0 0 0 0 0 0 0 0 0 0 0 127 0" result="hardAlpha"/>
<feMorphology radius="2" operator="erode" in="SourceAlpha" result="effect1_dropShadow_0_1"/>
<feOffset dx="2" dy="2"/>
<feGaussianBlur stdDeviation="3.75"/>
<feComposite in2="hardAlpha" operator="out"/>
<feColorMatrix type="matrix" values="0 0 0 0 0 0 0 0 0 0 0 0 0 0 0 0 0 0 0.25 0"/>
<feBlend mode="normal" in2="BackgroundImageFix" result="effect1_dropShadow_0_1"/>
<feBlend mode="normal" in="SourceGraphic" in2="effect1_dropShadow_0_1" result="shape"/>
</filter>
<filter id="filter11_d_0_1" x="36.5" y="171.5" width="625" height="211" filterUnits="userSpaceOnUse" color-interpolation-filters="sRGB">
<feFlood flood-opacity="0" result="BackgroundImageFix"/>
<feColorMatrix in="SourceAlpha" type="matrix" values="0 0 0 0 0 0 0 0 0 0 0 0 0 0 0 0 0 0 127 0" result="hardAlpha"/>
<feMorphology radius="2" operator="erode" in="SourceAlpha" result="effect1_dropShadow_0_1"/>
<feOffset dx="2" dy="2"/>
<feGaussianBlur stdDeviation="3.75"/>
<feComposite in2="hardAlpha" operator="out"/>
<feColorMatrix type="matrix" values="0 0 0 0 0 0 0 0 0 0 0 0 0 0 0 0 0 0 0.25 0"/>
<feBlend mode="normal" in2="BackgroundImageFix" result="effect1_dropShadow_0_1"/>
<feBlend mode="normal" in="SourceGraphic" in2="effect1_dropShadow_0_1" result="shape"/>
</filter>
</defs>
</svg>
