<svg width="1280" height="720" viewBox="0 0 1280 720" fill="none" xmlns="http://www.w3.org/2000/svg">
<rect width="1280" height="720" fill="#D5D5D5"/>
<path d="M56.768 47L55.592 43.276H49.068L47.892 47H44.56L50.916 27.96H53.884L60.268 47H56.768ZM50.888 37.452L50.02 40.196H54.612L53.744 37.452L52.344 32.636L50.888 37.452ZM69.699 35.52C69.2323 35.52 68.7003 35.632 68.103 35.856C67.5056 36.08 66.7963 36.5187 65.975 37.172V47H62.755V32.804H65.807V34.708C66.6843 33.9427 67.515 33.392 68.299 33.056C69.083 32.7013 69.8763 32.524 70.679 32.524C72.0416 32.524 73.0776 32.9627 73.787 33.84C74.4963 34.6987 74.851 35.912 74.851 37.48V47H71.631V37.872C71.631 36.304 70.987 35.52 69.699 35.52ZM89.8585 47.14C88.9065 47.14 88.1412 46.944 87.5625 46.552C87.0025 46.16 86.5919 45.6747 86.3305 45.096C85.5279 45.8427 84.7532 46.3933 84.0065 46.748C83.2599 47.1027 82.4572 47.28 81.5985 47.28C80.3479 47.28 79.4239 46.8787 78.8265 46.076C78.2479 45.2733 77.9585 44.256 77.9585 43.024C77.9585 42.2027 78.1079 41.484 78.4065 40.868C78.7239 40.2333 79.2372 39.7387 79.9465 39.384C80.6559 39.0293 81.6265 38.852 82.8585 38.852C83.3439 38.852 83.8479 38.8893 84.3705 38.964C84.8932 39.02 85.4159 39.0947 85.9385 39.188V37.536C85.9385 36.752 85.7239 36.22 85.2945 35.94C84.8652 35.6413 84.2865 35.492 83.5585 35.492C82.9985 35.492 82.3825 35.5667 81.7105 35.716C81.0572 35.8653 80.3479 36.0987 79.5825 36.416L78.6585 33.672C80.5439 32.9067 82.2519 32.524 83.7825 32.524C85.1639 32.524 86.2279 32.7573 86.9745 33.224C87.7399 33.6907 88.2719 34.3067 88.5705 35.072C88.8692 35.8373 89.0185 36.6587 89.0185 37.536V42.996C89.0185 43.276 89.0932 43.5467 89.2425 43.808C89.4105 44.0507 89.7279 44.172 90.1945 44.172H90.5025V47.14H89.8585ZM81.0665 42.968C81.0665 43.472 81.1785 43.8733 81.4025 44.172C81.6265 44.452 81.9532 44.592 82.3825 44.592C82.8119 44.592 83.2972 44.48 83.8385 44.256C84.3799 44.032 85.0799 43.5093 85.9385 42.688V41.484C84.9679 41.316 84.0159 41.232 83.0825 41.232C82.3545 41.232 81.8319 41.3813 81.5145 41.68C81.2159 41.9787 81.0665 42.408 81.0665 42.968ZM85.1265 30.788H82.2985L84.9865 26.14L88.0105 27.428L85.1265 30.788ZM93.2139 42.996V26.28H96.4339V42.996C96.4339 43.276 96.4993 43.5467 96.6299 43.808C96.7793 44.0507 97.0593 44.172 97.4699 44.172H97.9179V47.14H97.1339C96.0699 47.14 95.2579 46.9347 94.6979 46.524C94.1379 46.1133 93.7459 45.5907 93.5219 44.956C93.3166 44.3213 93.2139 43.668 93.2139 42.996ZM104.34 30.116H100.952V26.784H104.34V30.116ZM104.256 47H101.036V32.804H104.256V47ZM112.668 44.48C113.359 44.48 113.928 44.368 114.376 44.144C114.824 43.9013 115.048 43.5467 115.048 43.08C115.048 42.6693 114.899 42.352 114.6 42.128C114.32 41.8853 113.807 41.6707 113.06 41.484L111.464 41.064C110.232 40.7467 109.318 40.2147 108.72 39.468C108.142 38.7213 107.852 37.8347 107.852 36.808C107.852 35.5947 108.272 34.5773 109.112 33.756C109.952 32.9347 111.25 32.524 113.004 32.524C113.714 32.524 114.46 32.608 115.244 32.776C116.028 32.944 116.85 33.2147 117.708 33.588L116.784 36.332C116 35.9587 115.291 35.6973 114.656 35.548C114.022 35.3987 113.462 35.324 112.976 35.324C111.651 35.324 110.988 35.772 110.988 36.668C110.988 37.0227 111.1 37.3027 111.324 37.508C111.567 37.7133 112.006 37.9 112.64 38.068L114.236 38.488C115.599 38.8427 116.588 39.384 117.204 40.112C117.839 40.84 118.156 41.7547 118.156 42.856C118.156 44.1627 117.708 45.2267 116.812 46.048C115.935 46.8693 114.544 47.28 112.64 47.28C111.016 47.28 109.308 46.9067 107.516 46.16L108.384 43.5C109.262 43.8547 110.055 44.1067 110.764 44.256C111.474 44.4053 112.108 44.48 112.668 44.48ZM132.242 46.188C131.271 46.58 130.357 46.86 129.498 47.028C128.639 47.196 127.827 47.28 127.062 47.28C124.953 47.28 123.357 46.6827 122.274 45.488C121.191 44.2933 120.65 42.7067 120.65 40.728V39.048C120.65 37.7227 120.893 36.5747 121.378 35.604C121.863 34.6333 122.554 33.8773 123.45 33.336C124.346 32.7947 125.401 32.524 126.614 32.524C127.603 32.524 128.527 32.7293 129.386 33.14C130.263 33.532 130.973 34.1573 131.514 35.016C132.074 35.856 132.354 36.9387 132.354 38.264C132.354 38.656 132.326 39.076 132.27 39.524C132.214 39.9533 132.121 40.4107 131.99 40.896H123.758C123.795 42.0533 124.085 42.9213 124.626 43.5C125.167 44.0787 126.035 44.368 127.23 44.368C127.865 44.368 128.518 44.2933 129.19 44.144C129.881 43.9947 130.59 43.7707 131.318 43.472L132.242 46.188ZM126.614 35.24C125.755 35.24 125.083 35.52 124.598 36.08C124.131 36.6213 123.861 37.4053 123.786 38.432H129.162C129.181 38.3387 129.19 38.2547 129.19 38.18C129.19 38.0867 129.19 38.0027 129.19 37.928C129.19 37.032 128.938 36.36 128.434 35.912C127.93 35.464 127.323 35.24 126.614 35.24ZM149.985 47V45.068C149.126 45.9267 148.38 46.5147 147.745 46.832C147.129 47.1307 146.485 47.28 145.813 47.28C144.282 47.28 143.088 46.7013 142.229 45.544C141.389 44.3867 140.969 42.7627 140.969 40.672V39.16C140.969 37.1253 141.482 35.5107 142.509 34.316C143.536 33.1213 145.02 32.524 146.961 32.524C147.446 32.524 147.922 32.5707 148.389 32.664C148.874 32.7573 149.35 32.888 149.817 33.056V26.28H153.037V47H149.985ZM144.273 40.672C144.273 41.9227 144.478 42.8373 144.889 43.416C145.318 43.9947 145.916 44.284 146.681 44.284C147.11 44.284 147.568 44.1627 148.053 43.92C148.538 43.6587 149.126 43.1733 149.817 42.464V35.968C148.902 35.5947 148.062 35.408 147.297 35.408C146.214 35.408 145.44 35.744 144.973 36.416C144.506 37.088 144.273 38.0027 144.273 39.16V40.672ZM169.094 39.048V40.728C169.094 42.7067 168.552 44.2933 167.47 45.488C166.387 46.6827 164.856 47.28 162.878 47.28C160.899 47.28 159.368 46.6827 158.286 45.488C157.203 44.2933 156.662 42.7067 156.662 40.728V39.048C156.662 37.0693 157.194 35.492 158.258 34.316C159.34 33.1213 160.88 32.524 162.878 32.524C164.875 32.524 166.406 33.1213 167.47 34.316C168.552 35.492 169.094 37.0693 169.094 39.048ZM165.79 39.048C165.79 37.9093 165.538 37.0227 165.034 36.388C164.53 35.7347 163.811 35.408 162.878 35.408C161.944 35.408 161.226 35.7347 160.722 36.388C160.218 37.0227 159.966 37.9093 159.966 39.048V40.728C159.966 41.8667 160.218 42.7627 160.722 43.416C161.226 44.0693 161.944 44.396 162.878 44.396C163.811 44.396 164.53 44.0693 165.034 43.416C165.538 42.7627 165.79 41.8667 165.79 40.728V39.048ZM178.73 47V27.96H185.002C186.999 27.96 188.492 28.464 189.482 29.472C190.49 30.48 190.994 31.824 190.994 33.504V34.988C190.994 36.668 190.49 38.0213 189.482 39.048C188.492 40.056 186.999 40.56 185.002 40.56H182.09V47H178.73ZM185.002 31.18H182.09V37.34H185.002C185.823 37.34 186.448 37.1347 186.878 36.724C187.326 36.3133 187.55 35.7347 187.55 34.988V33.504C187.55 32.776 187.326 32.2067 186.878 31.796C186.448 31.3853 185.823 31.18 185.002 31.18ZM204.894 46.188C203.924 46.58 203.009 46.86 202.15 47.028C201.292 47.196 200.48 47.28 199.714 47.28C197.605 47.28 196.009 46.6827 194.926 45.488C193.844 44.2933 193.302 42.7067 193.302 40.728V39.048C193.302 37.7227 193.545 36.5747 194.03 35.604C194.516 34.6333 195.206 33.8773 196.102 33.336C196.998 32.7947 198.053 32.524 199.266 32.524C200.256 32.524 201.18 32.7293 202.038 33.14C202.916 33.532 203.625 34.1573 204.166 35.016C204.726 35.856 205.006 36.9387 205.006 38.264C205.006 38.656 204.978 39.076 204.922 39.524C204.866 39.9533 204.773 40.4107 204.642 40.896H196.41C196.448 42.0533 196.737 42.9213 197.278 43.5C197.82 44.0787 198.688 44.368 199.882 44.368C200.517 44.368 201.17 44.2933 201.842 44.144C202.533 43.9947 203.242 43.7707 203.97 43.472L204.894 46.188ZM199.266 35.24C198.408 35.24 197.736 35.52 197.25 36.08C196.784 36.6213 196.513 37.4053 196.438 38.432H201.814C201.833 38.3387 201.842 38.2547 201.842 38.18C201.842 38.0867 201.842 38.0027 201.842 37.928C201.842 37.032 201.59 36.36 201.086 35.912C200.582 35.464 199.976 35.24 199.266 35.24ZM216.724 35.744C215.847 35.744 215.007 35.884 214.204 36.164C213.42 36.4253 212.664 36.8547 211.936 37.452V47H208.716V32.804H211.768V34.988C212.72 34.092 213.569 33.4573 214.316 33.084C215.063 32.7107 215.865 32.524 216.724 32.524V35.744ZM223.324 31.6V32.804H231.92V47H228.7V35.604H223.324V47H220.104V35.604H217.808V32.804H220.104V31.6C220.104 30.4987 220.3 29.528 220.692 28.688C221.084 27.848 221.709 27.1947 222.568 26.728C223.445 26.2427 224.584 26 225.984 26C226.749 26 227.571 26.0933 228.448 26.28C229.325 26.448 230.24 26.7653 231.192 27.232L230.016 29.864C229.176 29.5467 228.439 29.332 227.804 29.22C227.169 29.0893 226.591 29.024 226.068 29.024C225.209 29.024 224.537 29.2107 224.052 29.584C223.567 29.9387 223.324 30.6107 223.324 31.6ZM236.249 42.996V26.28H239.469V42.996C239.469 43.276 239.534 43.5467 239.665 43.808C239.814 44.0507 240.094 44.172 240.505 44.172H240.953V47.14H240.169C239.105 47.14 238.293 46.9347 237.733 46.524C237.173 46.1133 236.781 45.5907 236.557 44.956C236.352 44.3213 236.249 43.668 236.249 42.996ZM257.993 47V45.068C257.134 45.9267 256.388 46.5147 255.753 46.832C255.137 47.1307 254.493 47.28 253.821 47.28C252.29 47.28 251.096 46.7013 250.237 45.544C249.397 44.3867 248.977 42.7627 248.977 40.672V39.16C248.977 37.1253 249.49 35.5107 250.517 34.316C251.544 33.1213 253.028 32.524 254.969 32.524C255.454 32.524 255.93 32.5707 256.397 32.664C256.882 32.7573 257.358 32.888 257.825 33.056V26.28H261.045V47H257.993ZM252.281 40.672C252.281 41.9227 252.486 42.8373 252.897 43.416C253.326 43.9947 253.924 44.284 254.689 44.284C255.118 44.284 255.576 44.1627 256.061 43.92C256.546 43.6587 257.134 43.1733 257.825 42.464V35.968C256.91 35.5947 256.07 35.408 255.305 35.408C254.222 35.408 253.448 35.744 252.981 36.416C252.514 37.088 252.281 38.0027 252.281 39.16V40.672ZM276.262 46.188C275.291 46.58 274.376 46.86 273.518 47.028C272.659 47.196 271.847 47.28 271.082 47.28C268.972 47.28 267.376 46.6827 266.294 45.488C265.211 44.2933 264.67 42.7067 264.67 40.728V39.048C264.67 37.7227 264.912 36.5747 265.398 35.604C265.883 34.6333 266.574 33.8773 267.47 33.336C268.366 32.7947 269.42 32.524 270.634 32.524C271.623 32.524 272.547 32.7293 273.406 33.14C274.283 33.532 274.992 34.1573 275.534 35.016C276.094 35.856 276.374 36.9387 276.374 38.264C276.374 38.656 276.346 39.076 276.29 39.524C276.234 39.9533 276.14 40.4107 276.01 40.896H267.778C267.815 42.0533 268.104 42.9213 268.646 43.5C269.187 44.0787 270.055 44.368 271.25 44.368C271.884 44.368 272.538 44.2933 273.21 44.144C273.9 43.9947 274.61 43.7707 275.338 43.472L276.262 46.188ZM270.634 35.24C269.775 35.24 269.103 35.52 268.618 36.08C268.151 36.6213 267.88 37.4053 267.806 38.432H273.182C273.2 38.3387 273.21 38.2547 273.21 38.18C273.21 38.0867 273.21 38.0027 273.21 37.928C273.21 37.032 272.958 36.36 272.454 35.912C271.95 35.464 271.343 35.24 270.634 35.24ZM288.685 39.468C288.685 40.8307 288.983 41.9507 289.581 42.828C290.178 43.6867 291.158 44.116 292.521 44.116C293.081 44.116 293.659 44.0413 294.257 43.892C294.873 43.7427 295.629 43.4907 296.525 43.136L297.561 46.048C296.553 46.496 295.619 46.8133 294.761 47C293.921 47.1867 293.109 47.28 292.325 47.28C290.757 47.28 289.441 46.944 288.377 46.272C287.331 45.6 286.547 44.676 286.025 43.5C285.502 42.324 285.241 40.98 285.241 39.468V35.464C285.241 33.952 285.502 32.608 286.025 31.432C286.547 30.256 287.331 29.3413 288.377 28.688C289.441 28.016 290.757 27.68 292.325 27.68C293.09 27.68 293.883 27.7733 294.705 27.96C295.526 28.128 296.422 28.4267 297.393 28.856L296.357 31.824C295.498 31.4693 294.779 31.2173 294.201 31.068C293.622 30.9187 293.062 30.844 292.521 30.844C291.158 30.844 290.178 31.2733 289.581 32.132C288.983 32.9907 288.685 34.1013 288.685 35.464V39.468ZM300.562 42.996V26.28H303.782V42.996C303.782 43.276 303.847 43.5467 303.978 43.808C304.127 44.0507 304.407 44.172 304.818 44.172H305.266V47.14H304.482C303.418 47.14 302.606 46.9347 302.046 46.524C301.486 46.1133 301.094 45.5907 300.87 44.956C300.664 44.3213 300.562 43.668 300.562 42.996ZM311.688 30.116H308.3V26.784H311.688V30.116ZM311.604 47H308.384V32.804H311.604V47ZM326.82 46.188C325.849 46.58 324.935 46.86 324.076 47.028C323.217 47.196 322.405 47.28 321.64 47.28C319.531 47.28 317.935 46.6827 316.852 45.488C315.769 44.2933 315.228 42.7067 315.228 40.728V39.048C315.228 37.7227 315.471 36.5747 315.956 35.604C316.441 34.6333 317.132 33.8773 318.028 33.336C318.924 32.7947 319.979 32.524 321.192 32.524C322.181 32.524 323.105 32.7293 323.964 33.14C324.841 33.532 325.551 34.1573 326.092 35.016C326.652 35.856 326.932 36.9387 326.932 38.264C326.932 38.656 326.904 39.076 326.848 39.524C326.792 39.9533 326.699 40.4107 326.568 40.896H318.336C318.373 42.0533 318.663 42.9213 319.204 43.5C319.745 44.0787 320.613 44.368 321.808 44.368C322.443 44.368 323.096 44.2933 323.768 44.144C324.459 43.9947 325.168 43.7707 325.896 43.472L326.82 46.188ZM321.192 35.24C320.333 35.24 319.661 35.52 319.176 36.08C318.709 36.6213 318.439 37.4053 318.364 38.432H323.74C323.759 38.3387 323.768 38.2547 323.768 38.18C323.768 38.0867 323.768 38.0027 323.768 37.928C323.768 37.032 323.516 36.36 323.012 35.912C322.508 35.464 321.901 35.24 321.192 35.24ZM337.586 35.52C337.119 35.52 336.587 35.632 335.99 35.856C335.392 36.08 334.683 36.5187 333.862 37.172V47H330.642V32.804H333.694V34.708C334.571 33.9427 335.402 33.392 336.186 33.056C336.97 32.7013 337.763 32.524 338.566 32.524C339.928 32.524 340.964 32.9627 341.674 33.84C342.383 34.6987 342.738 35.912 342.738 37.48V47H339.518V37.872C339.518 36.304 338.874 35.52 337.586 35.52ZM355.533 46.524C355.048 46.748 354.488 46.9253 353.853 47.056C353.219 47.2053 352.575 47.28 351.921 47.28C350.839 47.28 349.971 47.056 349.317 46.608C348.664 46.16 348.188 45.5347 347.889 44.732C347.609 43.9293 347.469 43.0147 347.469 41.988V35.604H345.173V32.804H347.469V29.108H350.689V32.804H355.113V35.604H350.689V41.988C350.689 42.8467 350.848 43.444 351.165 43.78C351.501 44.0973 351.977 44.256 352.593 44.256C352.892 44.256 353.209 44.228 353.545 44.172C353.9 44.0973 354.292 43.976 354.721 43.808L355.533 46.524ZM368.902 46.188C367.931 46.58 367.017 46.86 366.158 47.028C365.299 47.196 364.487 47.28 363.722 47.28C361.613 47.28 360.017 46.6827 358.934 45.488C357.851 44.2933 357.31 42.7067 357.31 40.728V39.048C357.31 37.7227 357.553 36.5747 358.038 35.604C358.523 34.6333 359.214 33.8773 360.11 33.336C361.006 32.7947 362.061 32.524 363.274 32.524C364.263 32.524 365.187 32.7293 366.046 33.14C366.923 33.532 367.633 34.1573 368.174 35.016C368.734 35.856 369.014 36.9387 369.014 38.264C369.014 38.656 368.986 39.076 368.93 39.524C368.874 39.9533 368.781 40.4107 368.65 40.896H360.418C360.455 42.0533 360.745 42.9213 361.286 43.5C361.827 44.0787 362.695 44.368 363.89 44.368C364.525 44.368 365.178 44.2933 365.85 44.144C366.541 43.9947 367.25 43.7707 367.978 43.472L368.902 46.188ZM363.274 35.24C362.415 35.24 361.743 35.52 361.258 36.08C360.791 36.6213 360.521 37.4053 360.446 38.432H365.822C365.841 38.3387 365.85 38.2547 365.85 38.18C365.85 38.0867 365.85 38.0027 365.85 37.928C365.85 37.032 365.598 36.36 365.094 35.912C364.59 35.464 363.983 35.24 363.274 35.24ZM376.7 44.48C377.39 44.48 377.96 44.368 378.408 44.144C378.856 43.9013 379.08 43.5467 379.08 43.08C379.08 42.6693 378.93 42.352 378.632 42.128C378.352 41.8853 377.838 41.6707 377.092 41.484L375.496 41.064C374.264 40.7467 373.349 40.2147 372.752 39.468C372.173 38.7213 371.884 37.8347 371.884 36.808C371.884 35.5947 372.304 34.5773 373.144 33.756C373.984 32.9347 375.281 32.524 377.036 32.524C377.745 32.524 378.492 32.608 379.276 32.776C380.06 32.944 380.881 33.2147 381.74 33.588L380.816 36.332C380.032 35.9587 379.322 35.6973 378.688 35.548C378.053 35.3987 377.493 35.324 377.008 35.324C375.682 35.324 375.02 35.772 375.02 36.668C375.02 37.0227 375.132 37.3027 375.356 37.508C375.598 37.7133 376.037 37.9 376.672 38.068L378.268 38.488C379.63 38.8427 380.62 39.384 381.236 40.112C381.87 40.84 382.188 41.7547 382.188 42.856C382.188 44.1627 381.74 45.2267 380.844 46.048C379.966 46.8693 378.576 47.28 376.672 47.28C375.048 47.28 373.34 46.9067 371.548 46.16L372.416 43.5C373.293 43.8547 374.086 44.1067 374.796 44.256C375.505 44.4053 376.14 44.48 376.7 44.48ZM401.879 46.188C400.908 46.58 399.993 46.86 399.135 47.028C398.276 47.196 397.464 47.28 396.699 47.28C394.589 47.28 392.993 46.6827 391.911 45.488C390.828 44.2933 390.287 42.7067 390.287 40.728V39.048C390.287 37.7227 390.529 36.5747 391.015 35.604C391.5 34.6333 392.191 33.8773 393.087 33.336C393.983 32.7947 395.037 32.524 396.251 32.524C397.24 32.524 398.164 32.7293 399.023 33.14C399.9 33.532 400.609 34.1573 401.151 35.016C401.711 35.856 401.991 36.9387 401.991 38.264C401.991 38.656 401.963 39.076 401.907 39.524C401.851 39.9533 401.757 40.4107 401.627 40.896H393.395C393.432 42.0533 393.721 42.9213 394.263 43.5C394.804 44.0787 395.672 44.368 396.867 44.368C397.501 44.368 398.155 44.2933 398.827 44.144C399.517 43.9947 400.227 43.7707 400.955 43.472L401.879 46.188ZM396.251 35.24C395.392 35.24 394.72 35.52 394.235 36.08C393.768 36.6213 393.497 37.4053 393.423 38.432H398.799C398.817 38.3387 398.827 38.2547 398.827 38.18C398.827 38.0867 398.827 38.0027 398.827 37.928C398.827 37.032 398.575 36.36 398.071 35.912C397.567 35.464 396.96 35.24 396.251 35.24ZM411.726 47V27.96H417.998C419.995 27.96 421.488 28.464 422.478 29.472C423.486 30.48 423.99 31.824 423.99 33.504V34.988C423.99 36.668 423.486 38.0213 422.478 39.048C421.488 40.056 419.995 40.56 417.998 40.56H415.086V47H411.726ZM417.998 31.18H415.086V37.34H417.998C418.819 37.34 419.444 37.1347 419.874 36.724C420.322 36.3133 420.546 35.7347 420.546 34.988V33.504C420.546 32.776 420.322 32.2067 419.874 31.796C419.444 31.3853 418.819 31.18 417.998 31.18ZM437.89 46.188C436.92 46.58 436.005 46.86 435.146 47.028C434.288 47.196 433.476 47.28 432.71 47.28C430.601 47.28 429.005 46.6827 427.922 45.488C426.84 44.2933 426.298 42.7067 426.298 40.728V39.048C426.298 37.7227 426.541 36.5747 427.026 35.604C427.512 34.6333 428.202 33.8773 429.098 33.336C429.994 32.7947 431.049 32.524 432.262 32.524C433.252 32.524 434.176 32.7293 435.034 33.14C435.912 33.532 436.621 34.1573 437.162 35.016C437.722 35.856 438.002 36.9387 438.002 38.264C438.002 38.656 437.974 39.076 437.918 39.524C437.862 39.9533 437.769 40.4107 437.638 40.896H429.406C429.444 42.0533 429.733 42.9213 430.274 43.5C430.816 44.0787 431.684 44.368 432.878 44.368C433.513 44.368 434.166 44.2933 434.838 44.144C435.529 43.9947 436.238 43.7707 436.966 43.472L437.89 46.188ZM432.262 35.24C431.404 35.24 430.732 35.52 430.246 36.08C429.78 36.6213 429.509 37.4053 429.434 38.432H434.81C434.829 38.3387 434.838 38.2547 434.838 38.18C434.838 38.0867 434.838 38.0027 434.838 37.928C434.838 37.032 434.586 36.36 434.082 35.912C433.578 35.464 432.972 35.24 432.262 35.24ZM449.72 35.744C448.843 35.744 448.003 35.884 447.2 36.164C446.416 36.4253 445.66 36.8547 444.932 37.452V47H441.712V32.804H444.764V34.988C445.716 34.092 446.565 33.4573 447.312 33.084C448.059 32.7107 448.861 32.524 449.72 32.524V35.744ZM460.744 35.604H456.32V47H453.1V35.604H450.804V32.804H453.1V31.32C453.1 29.7707 453.492 28.5013 454.276 27.512C455.06 26.504 456.32 26 458.056 26C458.691 26 459.344 26.0653 460.016 26.196C460.688 26.3267 461.295 26.4947 461.836 26.7L461.052 29.472C460.156 29.1733 459.353 29.024 458.644 29.024C457.897 29.024 457.319 29.192 456.908 29.528C456.516 29.8453 456.32 30.4427 456.32 31.32V32.804H460.744V35.604ZM474.715 39.048V40.728C474.715 42.7067 474.173 44.2933 473.091 45.488C472.008 46.6827 470.477 47.28 468.499 47.28C466.52 47.28 464.989 46.6827 463.907 45.488C462.824 44.2933 462.283 42.7067 462.283 40.728V39.048C462.283 37.0693 462.815 35.492 463.879 34.316C464.961 33.1213 466.501 32.524 468.499 32.524C470.496 32.524 472.027 33.1213 473.091 34.316C474.173 35.492 474.715 37.0693 474.715 39.048ZM471.411 39.048C471.411 37.9093 471.159 37.0227 470.655 36.388C470.151 35.7347 469.432 35.408 468.499 35.408C467.565 35.408 466.847 35.7347 466.343 36.388C465.839 37.0227 465.587 37.9093 465.587 39.048V40.728C465.587 41.8667 465.839 42.7627 466.343 43.416C466.847 44.0693 467.565 44.396 468.499 44.396C469.432 44.396 470.151 44.0693 470.655 43.416C471.159 42.7627 471.411 41.8667 471.411 40.728V39.048ZM486.333 35.744C485.456 35.744 484.616 35.884 483.813 36.164C483.029 36.4253 482.273 36.8547 481.545 37.452V47H478.325V32.804H481.377V34.988C482.329 34.092 483.179 33.4573 483.925 33.084C484.672 32.7107 485.475 32.524 486.333 32.524V35.744ZM492.373 37.172V47H489.153V32.804H492.205V34.68C493.083 33.9147 493.895 33.364 494.641 33.028C495.388 32.692 496.153 32.524 496.937 32.524C498.673 32.524 499.859 33.2893 500.493 34.82C501.427 33.9987 502.295 33.4107 503.097 33.056C503.9 32.7013 504.712 32.524 505.533 32.524C506.84 32.524 507.839 32.9627 508.529 33.84C509.22 34.6987 509.565 35.912 509.565 37.48V47H506.345V37.872C506.345 36.304 505.748 35.52 504.553 35.52C504.087 35.52 503.573 35.632 503.013 35.856C502.453 36.08 501.772 36.5187 500.969 37.172V47H497.749V37.872C497.749 36.304 497.152 35.52 495.957 35.52C495.491 35.52 494.977 35.632 494.417 35.856C493.857 36.08 493.176 36.5187 492.373 37.172ZM524.569 47.14C523.617 47.14 522.852 46.944 522.273 46.552C521.713 46.16 521.303 45.6747 521.041 45.096C520.239 45.8427 519.464 46.3933 518.717 46.748C517.971 47.1027 517.168 47.28 516.309 47.28C515.059 47.28 514.135 46.8787 513.537 46.076C512.959 45.2733 512.669 44.256 512.669 43.024C512.669 42.2027 512.819 41.484 513.117 40.868C513.435 40.2333 513.948 39.7387 514.657 39.384C515.367 39.0293 516.337 38.852 517.569 38.852C518.055 38.852 518.559 38.8893 519.081 38.964C519.604 39.02 520.127 39.0947 520.649 39.188V37.536C520.649 36.752 520.435 36.22 520.005 35.94C519.576 35.6413 518.997 35.492 518.269 35.492C517.709 35.492 517.093 35.5667 516.421 35.716C515.768 35.8653 515.059 36.0987 514.293 36.416L513.369 33.672C515.255 32.9067 516.963 32.524 518.493 32.524C519.875 32.524 520.939 32.7573 521.685 33.224C522.451 33.6907 522.983 34.3067 523.281 35.072C523.58 35.8373 523.729 36.6587 523.729 37.536V42.996C523.729 43.276 523.804 43.5467 523.953 43.808C524.121 44.0507 524.439 44.172 524.905 44.172H525.213V47.14H524.569ZM515.777 42.968C515.777 43.472 515.889 43.8733 516.113 44.172C516.337 44.452 516.664 44.592 517.093 44.592C517.523 44.592 518.008 44.48 518.549 44.256C519.091 44.032 519.791 43.5093 520.649 42.688V41.484C519.679 41.316 518.727 41.232 517.793 41.232C517.065 41.232 516.543 41.3813 516.225 41.68C515.927 41.9787 515.777 42.408 515.777 42.968ZM534.953 35.52C534.486 35.52 533.954 35.632 533.357 35.856C532.76 36.08 532.05 36.5187 531.229 37.172V47H528.009V32.804H531.061V34.708C531.938 33.9427 532.769 33.392 533.553 33.056C534.337 32.7013 535.13 32.524 535.933 32.524C537.296 32.524 538.332 32.9627 539.041 33.84C539.75 34.6987 540.105 35.912 540.105 37.48V47H536.885V37.872C536.885 36.304 536.241 35.52 534.953 35.52ZM546.824 39.076V40.728C546.824 41.9227 547.039 42.8187 547.468 43.416C547.898 44.0133 548.588 44.312 549.54 44.312C550.007 44.312 550.53 44.256 551.108 44.144C551.706 44.0133 552.35 43.8173 553.04 43.556L553.964 46.272C553.124 46.608 552.331 46.86 551.584 47.028C550.838 47.196 550.1 47.28 549.372 47.28C547.506 47.28 546.078 46.6827 545.088 45.488C544.099 44.2933 543.604 42.7067 543.604 40.728V39.076C543.604 37.0787 544.099 35.492 545.088 34.316C546.078 33.1213 547.506 32.524 549.372 32.524C550.082 32.524 550.8 32.608 551.528 32.776C552.256 32.944 553.022 33.1867 553.824 33.504L552.9 36.276C551.556 35.7533 550.436 35.492 549.54 35.492C548.588 35.492 547.898 35.7907 547.468 36.388C547.039 36.9667 546.824 37.8627 546.824 39.076ZM567.691 46.188C566.721 46.58 565.806 46.86 564.947 47.028C564.089 47.196 563.277 47.28 562.511 47.28C560.402 47.28 558.806 46.6827 557.723 45.488C556.641 44.2933 556.099 42.7067 556.099 40.728V39.048C556.099 37.7227 556.342 36.5747 556.827 35.604C557.313 34.6333 558.003 33.8773 558.899 33.336C559.795 32.7947 560.85 32.524 562.063 32.524C563.053 32.524 563.977 32.7293 564.835 33.14C565.713 33.532 566.422 34.1573 566.963 35.016C567.523 35.856 567.803 36.9387 567.803 38.264C567.803 38.656 567.775 39.076 567.719 39.524C567.663 39.9533 567.57 40.4107 567.439 40.896H559.207C559.245 42.0533 559.534 42.9213 560.075 43.5C560.617 44.0787 561.485 44.368 562.679 44.368C563.314 44.368 563.967 44.2933 564.639 44.144C565.33 43.9947 566.039 43.7707 566.767 43.472L567.691 46.188ZM562.063 35.24C561.205 35.24 560.533 35.52 560.047 36.08C559.581 36.6213 559.31 37.4053 559.235 38.432H564.611C564.63 38.3387 564.639 38.2547 564.639 38.18C564.639 38.0867 564.639 38.0027 564.639 37.928C564.639 37.032 564.387 36.36 563.883 35.912C563.379 35.464 562.773 35.24 562.063 35.24ZM585.434 47V45.068C584.576 45.9267 583.829 46.5147 583.194 46.832C582.578 47.1307 581.934 47.28 581.262 47.28C579.732 47.28 578.537 46.7013 577.678 45.544C576.838 44.3867 576.418 42.7627 576.418 40.672V39.16C576.418 37.1253 576.932 35.5107 577.958 34.316C578.985 33.1213 580.469 32.524 582.41 32.524C582.896 32.524 583.372 32.5707 583.838 32.664C584.324 32.7573 584.8 32.888 585.266 33.056V26.28H588.486V47H585.434ZM579.722 40.672C579.722 41.9227 579.928 42.8373 580.338 43.416C580.768 43.9947 581.365 44.284 582.13 44.284C582.56 44.284 583.017 44.1627 583.502 43.92C583.988 43.6587 584.576 43.1733 585.266 42.464V35.968C584.352 35.5947 583.512 35.408 582.746 35.408C581.664 35.408 580.889 35.744 580.422 36.416C579.956 37.088 579.722 38.0027 579.722 39.16V40.672ZM603.703 46.188C602.732 46.58 601.818 46.86 600.959 47.028C600.1 47.196 599.288 47.28 598.523 47.28C596.414 47.28 594.818 46.6827 593.735 45.488C592.652 44.2933 592.111 42.7067 592.111 40.728V39.048C592.111 37.7227 592.354 36.5747 592.839 35.604C593.324 34.6333 594.015 33.8773 594.911 33.336C595.807 32.7947 596.862 32.524 598.075 32.524C599.064 32.524 599.988 32.7293 600.847 33.14C601.724 33.532 602.434 34.1573 602.975 35.016C603.535 35.856 603.815 36.9387 603.815 38.264C603.815 38.656 603.787 39.076 603.731 39.524C603.675 39.9533 603.582 40.4107 603.451 40.896H595.219C595.256 42.0533 595.546 42.9213 596.087 43.5C596.628 44.0787 597.496 44.368 598.691 44.368C599.326 44.368 599.979 44.2933 600.651 44.144C601.342 43.9947 602.051 43.7707 602.779 43.472L603.703 46.188ZM598.075 35.24C597.216 35.24 596.544 35.52 596.059 36.08C595.592 36.6213 595.322 37.4053 595.247 38.432H600.623C600.642 38.3387 600.651 38.2547 600.651 38.18C600.651 38.0867 600.651 38.0027 600.651 37.928C600.651 37.032 600.399 36.36 599.895 35.912C599.391 35.464 598.784 35.24 598.075 35.24ZM616.126 39.468C616.126 40.8307 616.425 41.9507 617.022 42.828C617.619 43.6867 618.599 44.116 619.962 44.116C620.522 44.116 621.101 44.0413 621.698 43.892C622.314 43.7427 623.07 43.4907 623.966 43.136L625.002 46.048C623.994 46.496 623.061 46.8133 622.202 47C621.362 47.1867 620.55 47.28 619.766 47.28C618.198 47.28 616.882 46.944 615.818 46.272C614.773 45.6 613.989 44.676 613.466 43.5C612.943 42.324 612.682 40.98 612.682 39.468V35.464C612.682 33.952 612.943 32.608 613.466 31.432C613.989 30.256 614.773 29.3413 615.818 28.688C616.882 28.016 618.198 27.68 619.766 27.68C620.531 27.68 621.325 27.7733 622.146 27.96C622.967 28.128 623.863 28.4267 624.834 28.856L623.798 31.824C622.939 31.4693 622.221 31.2173 621.642 31.068C621.063 30.9187 620.503 30.844 619.962 30.844C618.599 30.844 617.619 31.2733 617.022 32.132C616.425 32.9907 616.126 34.1013 616.126 35.464V39.468ZM638.839 47.14C637.887 47.14 637.122 46.944 636.543 46.552C635.983 46.16 635.572 45.6747 635.311 45.096C634.508 45.8427 633.734 46.3933 632.987 46.748C632.24 47.1027 631.438 47.28 630.579 47.28C629.328 47.28 628.404 46.8787 627.807 46.076C627.228 45.2733 626.939 44.256 626.939 43.024C626.939 42.2027 627.088 41.484 627.387 40.868C627.704 40.2333 628.218 39.7387 628.927 39.384C629.636 39.0293 630.607 38.852 631.839 38.852C632.324 38.852 632.828 38.8893 633.351 38.964C633.874 39.02 634.396 39.0947 634.919 39.188V37.536C634.919 36.752 634.704 36.22 634.275 35.94C633.846 35.6413 633.267 35.492 632.539 35.492C631.979 35.492 631.363 35.5667 630.691 35.716C630.038 35.8653 629.328 36.0987 628.563 36.416L627.639 33.672C629.524 32.9067 631.232 32.524 632.763 32.524C634.144 32.524 635.208 32.7573 635.955 33.224C636.72 33.6907 637.252 34.3067 637.551 35.072C637.85 35.8373 637.999 36.6587 637.999 37.536V42.996C637.999 43.276 638.074 43.5467 638.223 43.808C638.391 44.0507 638.708 44.172 639.175 44.172H639.483V47.14H638.839ZM630.047 42.968C630.047 43.472 630.159 43.8733 630.383 44.172C630.607 44.452 630.934 44.592 631.363 44.592C631.792 44.592 632.278 44.48 632.819 44.256C633.36 44.032 634.06 43.5093 634.919 42.688V41.484C633.948 41.316 632.996 41.232 632.063 41.232C631.335 41.232 630.812 41.3813 630.495 41.68C630.196 41.9787 630.047 42.408 630.047 42.968ZM645.498 37.172V47H642.278V32.804H645.33V34.68C646.208 33.9147 647.02 33.364 647.766 33.028C648.513 32.692 649.278 32.524 650.062 32.524C651.798 32.524 652.984 33.2893 653.618 34.82C654.552 33.9987 655.42 33.4107 656.222 33.056C657.025 32.7013 657.837 32.524 658.658 32.524C659.965 32.524 660.964 32.9627 661.654 33.84C662.345 34.6987 662.69 35.912 662.69 37.48V47H659.47V37.872C659.47 36.304 658.873 35.52 657.678 35.52C657.212 35.52 656.698 35.632 656.138 35.856C655.578 36.08 654.897 36.5187 654.094 37.172V47H650.874V37.872C650.874 36.304 650.277 35.52 649.082 35.52C648.616 35.52 648.102 35.632 647.542 35.856C646.982 36.08 646.301 36.5187 645.498 37.172ZM673.018 47.28C672.552 47.28 672.076 47.2333 671.59 47.14C671.124 47.0467 670.648 46.916 670.162 46.748V52.964H666.942V32.804H669.994V34.736C670.872 33.8587 671.618 33.2707 672.234 32.972C672.85 32.6733 673.494 32.524 674.166 32.524C675.716 32.524 676.91 33.1027 677.75 34.26C678.59 35.4173 679.01 37.0413 679.01 39.132V40.644C679.01 42.6787 678.497 44.2933 677.47 45.488C676.444 46.6827 674.96 47.28 673.018 47.28ZM673.298 35.52C672.869 35.52 672.412 35.6507 671.926 35.912C671.46 36.1547 670.872 36.6307 670.162 37.34V43.836C671.077 44.2093 671.917 44.396 672.682 44.396C673.765 44.396 674.54 44.06 675.006 43.388C675.473 42.716 675.706 41.8013 675.706 40.644V39.132C675.706 37.8813 675.492 36.9667 675.062 36.388C674.652 35.8093 674.064 35.52 673.298 35.52ZM693.499 47.14C692.547 47.14 691.782 46.944 691.203 46.552C690.643 46.16 690.232 45.6747 689.971 45.096C689.168 45.8427 688.394 46.3933 687.647 46.748C686.9 47.1027 686.098 47.28 685.239 47.28C683.988 47.28 683.064 46.8787 682.467 46.076C681.888 45.2733 681.599 44.256 681.599 43.024C681.599 42.2027 681.748 41.484 682.047 40.868C682.364 40.2333 682.878 39.7387 683.587 39.384C684.296 39.0293 685.267 38.852 686.499 38.852C686.984 38.852 687.488 38.8893 688.011 38.964C688.534 39.02 689.056 39.0947 689.579 39.188V37.536C689.579 36.752 689.364 36.22 688.935 35.94C688.506 35.6413 687.927 35.492 687.199 35.492C686.639 35.492 686.023 35.5667 685.351 35.716C684.698 35.8653 683.988 36.0987 683.223 36.416L682.299 33.672C684.184 32.9067 685.892 32.524 687.423 32.524C688.804 32.524 689.868 32.7573 690.615 33.224C691.38 33.6907 691.912 34.3067 692.211 35.072C692.51 35.8373 692.659 36.6587 692.659 37.536V42.996C692.659 43.276 692.734 43.5467 692.883 43.808C693.051 44.0507 693.368 44.172 693.835 44.172H694.143V47.14H693.499ZM684.707 42.968C684.707 43.472 684.819 43.8733 685.043 44.172C685.267 44.452 685.594 44.592 686.023 44.592C686.452 44.592 686.938 44.48 687.479 44.256C688.02 44.032 688.72 43.5093 689.579 42.688V41.484C688.608 41.316 687.656 41.232 686.723 41.232C685.995 41.232 685.472 41.3813 685.155 41.68C684.856 41.9787 684.707 42.408 684.707 42.968ZM703.883 35.52C703.416 35.52 702.884 35.632 702.287 35.856C701.689 36.08 700.98 36.5187 700.159 37.172V47H696.939V32.804H699.991V34.708C700.868 33.9427 701.699 33.392 702.483 33.056C703.267 32.7013 704.06 32.524 704.863 32.524C706.225 32.524 707.261 32.9627 707.971 33.84C708.68 34.6987 709.035 35.912 709.035 37.48V47H705.815V37.872C705.815 36.304 705.171 35.52 703.883 35.52ZM720.234 35.52C719.767 35.52 719.235 35.632 718.638 35.856C718.041 36.08 717.331 36.5187 716.51 37.172V47H713.29V26.28H716.51V34.568C717.369 33.84 718.171 33.3173 718.918 33C719.665 32.6827 720.43 32.524 721.214 32.524C722.577 32.524 723.613 32.9627 724.322 33.84C725.031 34.6987 725.386 35.912 725.386 37.48V47H722.166V37.872C722.166 36.304 721.522 35.52 720.234 35.52ZM740.394 47.14C739.442 47.14 738.676 46.944 738.098 46.552C737.538 46.16 737.127 45.6747 736.866 45.096C736.063 45.8427 735.288 46.3933 734.542 46.748C733.795 47.1027 732.992 47.28 732.134 47.28C730.883 47.28 729.959 46.8787 729.362 46.076C728.783 45.2733 728.494 44.256 728.494 43.024C728.494 42.2027 728.643 41.484 728.942 40.868C729.259 40.2333 729.772 39.7387 730.482 39.384C731.191 39.0293 732.162 38.852 733.394 38.852C733.879 38.852 734.383 38.8893 734.906 38.964C735.428 39.02 735.951 39.0947 736.474 39.188V37.536C736.474 36.752 736.259 36.22 735.83 35.94C735.4 35.6413 734.822 35.492 734.094 35.492C733.534 35.492 732.918 35.5667 732.246 35.716C731.592 35.8653 730.883 36.0987 730.118 36.416L729.194 33.672C731.079 32.9067 732.787 32.524 734.318 32.524C735.699 32.524 736.763 32.7573 737.51 33.224C738.275 33.6907 738.807 34.3067 739.106 35.072C739.404 35.8373 739.554 36.6587 739.554 37.536V42.996C739.554 43.276 739.628 43.5467 739.778 43.808C739.946 44.0507 740.263 44.172 740.73 44.172H741.038V47.14H740.394ZM731.602 42.968C731.602 43.472 731.714 43.8733 731.938 44.172C732.162 44.452 732.488 44.592 732.918 44.592C733.347 44.592 733.832 44.48 734.374 44.256C734.915 44.032 735.615 43.5093 736.474 42.688V41.484C735.503 41.316 734.551 41.232 733.618 41.232C732.89 41.232 732.367 41.3813 732.05 41.68C731.751 41.9787 731.602 42.408 731.602 42.968ZM747.809 44.48C748.5 44.48 749.069 44.368 749.517 44.144C749.965 43.9013 750.189 43.5467 750.189 43.08C750.189 42.6693 750.04 42.352 749.741 42.128C749.461 41.8853 748.948 41.6707 748.201 41.484L746.605 41.064C745.373 40.7467 744.458 40.2147 743.861 39.468C743.282 38.7213 742.993 37.8347 742.993 36.808C742.993 35.5947 743.413 34.5773 744.253 33.756C745.093 32.9347 746.39 32.524 748.145 32.524C748.854 32.524 749.601 32.608 750.385 32.776C751.169 32.944 751.99 33.2147 752.849 33.588L751.925 36.332C751.141 35.9587 750.432 35.6973 749.797 35.548C749.162 35.3987 748.602 35.324 748.117 35.324C746.792 35.324 746.129 35.772 746.129 36.668C746.129 37.0227 746.241 37.3027 746.465 37.508C746.708 37.7133 747.146 37.9 747.781 38.068L749.377 38.488C750.74 38.8427 751.729 39.384 752.345 40.112C752.98 40.84 753.297 41.7547 753.297 42.856C753.297 44.1627 752.849 45.2267 751.953 46.048C751.076 46.8693 749.685 47.28 747.781 47.28C746.157 47.28 744.449 46.9067 742.657 46.16L743.525 43.5C744.402 43.8547 745.196 44.1067 745.905 44.256C746.614 44.4053 747.249 44.48 747.809 44.48Z" fill="black"/>
<g filter="url(#filter0_d_1_2)">
<path d="M912 78C912 76.8954 912.895 76 914 76H1179C1185.63 76 1191 81.3726 1191 88V116H912V78Z" fill="#F8F9FA" fill-opacity="0.972549" shape-rendering="crispEdges"/>
</g>
<g filter="url(#filter1_d_1_2)">
<path d="M618 78C618 76.8954 618.895 76 620 76H885C891.627 76 897 81.3726 897 88V116H618V78Z" fill="#F8F9FA" fill-opacity="0.972549" shape-rendering="crispEdges"/>
</g>
<g filter="url(#filter2_d_1_2)">
<path d="M324 78C324 76.8954 324.895 76 326 76H591C597.627 76 603 81.3726 603 88V116H324V78Z" fill="#F8F9FA" fill-opacity="0.972549" shape-rendering="crispEdges"/>
</g>
<g filter="url(#filter3_d_1_2)">
<path d="M30 78C30 76.8954 30.8954 76 32 76H297C303.627 76 309 81.3726 309 88V116H30V78Z" fill="#0091FF" fill-opacity="0.666667" shape-rendering="crispEdges"/>
</g>
<path d="M30 116H1238C1244.63 116 1250 121.373 1250 128V679C1250 685.075 1245.08 690 1239 690H41C34.9249 690 30 685.075 30 679V116Z" fill="#F8F9FA"/>
<g filter="url(#filter4_d_1_2)">
<rect x="680" y="268" width="540" height="277" rx="13" fill="white"/>
</g>
<g filter="url(#filter5_d_1_2)">
<rect x="680" y="146" width="255" height="98" rx="13" fill="white"/>
</g>
<g filter="url(#filter6_d_1_2)">
<rect x="965" y="146" width="255" height="98" rx="13" fill="white"/>
</g>
<g filter="url(#filter7_d_1_2)">
<rect x="68" y="576" width="1152" height="84" rx="13" fill="white"/>
</g>
<g filter="url(#filter8_d_1_2)">
<rect x="60" y="370" width="280" height="174" rx="13" fill="white"/>
</g>
<g filter="url(#filter9_d_1_2)">
<rect x="370" y="371" width="280" height="174" rx="13" fill="white"/>
</g>
<g filter="url(#filter10_d_1_2)">
<rect x="60" y="146" width="590" height="194" rx="13" fill="white"/>
</g>
<defs>
<filter id="filter0_d_1_2" x="906.1" y="70.1" width="292.8" height="53.8" filterUnits="userSpaceOnUse" color-interpolation-filters="sRGB">
<feFlood flood-opacity="0" result="BackgroundImageFix"/>
<feColorMatrix in="SourceAlpha" type="matrix" values="0 0 0 0 0 0 0 0 0 0 0 0 0 0 0 0 0 0 127 0" result="hardAlpha"/>
<feOffset dx="1" dy="1"/>
<feGaussianBlur stdDeviation="3.45"/>
<feComposite in2="hardAlpha" operator="out"/>
<feColorMatrix type="matrix" values="0 0 0 0 0 0 0 0 0 0 0 0 0 0 0 0 0 0 0.25 0"/>
<feBlend mode="normal" in2="BackgroundImageFix" result="effect1_dropShadow_1_2"/>
<feBlend mode="normal" in="SourceGraphic" in2="effect1_dropShadow_1_2" result="shape"/>
</filter>
<filter id="filter1_d_1_2" x="613.5" y="70.5" width="292" height="53" filterUnits="userSpaceOnUse" color-interpolation-filters="sRGB">
<feFlood flood-opacity="0" result="BackgroundImageFix"/>
<feColorMatrix in="SourceAlpha" type="matrix" values="0 0 0 0 0 0 0 0 0 0 0 0 0 0 0 0 0 0 127 0" result="hardAlpha"/>
<feOffset dx="2" dy="1"/>
<feGaussianBlur stdDeviation="3.25"/>
<feComposite in2="hardAlpha" operator="out"/>
<feColorMatrix type="matrix" values="0 0 0 0 0 0 0 0 0 0 0 0 0 0 0 0 0 0 0.25 0"/>
<feBlend mode="normal" in2="BackgroundImageFix" result="effect1_dropShadow_1_2"/>
<feBlend mode="normal" in="SourceGraphic" in2="effect1_dropShadow_1_2" result="shape"/>
</filter>
<filter id="filter2_d_1_2" x="317.3" y="69.3" width="294.4" height="55.4" filterUnits="userSpaceOnUse" color-interpolation-filters="sRGB">
<feFlood flood-opacity="0" result="BackgroundImageFix"/>
<feColorMatrix in="SourceAlpha" type="matrix" values="0 0 0 0 0 0 0 0 0 0 0 0 0 0 0 0 0 0 127 0" result="hardAlpha"/>
<feOffset dx="1" dy="1"/>
<feGaussianBlur stdDeviation="3.85"/>
<feComposite in2="hardAlpha" operator="out"/>
<feColorMatrix type="matrix" values="0 0 0 0 0 0 0 0 0 0 0 0 0 0 0 0 0 0 0.25 0"/>
<feBlend mode="normal" in2="BackgroundImageFix" result="effect1_dropShadow_1_2"/>
<feBlend mode="normal" in="SourceGraphic" in2="effect1_dropShadow_1_2" result="shape"/>
</filter>
<filter id="filter3_d_1_2" x="25" y="70" width="293" height="54" filterUnits="userSpaceOnUse" color-interpolation-filters="sRGB">
<feFlood flood-opacity="0" result="BackgroundImageFix"/>
<feColorMatrix in="SourceAlpha" type="matrix" values="0 0 0 0 0 0 0 0 0 0 0 0 0 0 0 0 0 0 127 0" result="hardAlpha"/>
<feOffset dx="2" dy="1"/>
<feGaussianBlur stdDeviation="3.5"/>
<feComposite in2="hardAlpha" operator="out"/>
<feColorMatrix type="matrix" values="0 0 0 0 0 0 0 0 0 0 0 0 0 0 0 0 0 0 0.25 0"/>
<feBlend mode="normal" in2="BackgroundImageFix" result="effect1_dropShadow_1_2"/>
<feBlend mode="normal" in="SourceGraphic" in2="effect1_dropShadow_1_2" result="shape"/>
</filter>
<filter id="filter4_d_1_2" x="676.5" y="264.5" width="551" height="288" filterUnits="userSpaceOnUse" color-interpolation-filters="sRGB">
<feFlood flood-opacity="0" result="BackgroundImageFix"/>
<feColorMatrix in="SourceAlpha" type="matrix" values="0 0 0 0 0 0 0 0 0 0 0 0 0 0 0 0 0 0 127 0" result="hardAlpha"/>
<feMorphology radius="2" operator="erode" in="SourceAlpha" result="effect1_dropShadow_1_2"/>
<feOffset dx="2" dy="2"/>
<feGaussianBlur stdDeviation="3.75"/>
<feComposite in2="hardAlpha" operator="out"/>
<feColorMatrix type="matrix" values="0 0 0 0 0 0 0 0 0 0 0 0 0 0 0 0 0 0 0.25 0"/>
<feBlend mode="normal" in2="BackgroundImageFix" result="effect1_dropShadow_1_2"/>
<feBlend mode="normal" in="SourceGraphic" in2="effect1_dropShadow_1_2" result="shape"/>
</filter>
<filter id="filter5_d_1_2" x="676.5" y="142.5" width="266" height="109" filterUnits="userSpaceOnUse" color-interpolation-filters="sRGB">
<feFlood flood-opacity="0" result="BackgroundImageFix"/>
<feColorMatrix in="SourceAlpha" type="matrix" values="0 0 0 0 0 0 0 0 0 0 0 0 0 0 0 0 0 0 127 0" result="hardAlpha"/>
<feMorphology radius="2" operator="erode" in="SourceAlpha" result="effect1_dropShadow_1_2"/>
<feOffset dx="2" dy="2"/>
<feGaussianBlur stdDeviation="3.75"/>
<feComposite in2="hardAlpha" operator="out"/>
<feColorMatrix type="matrix" values="0 0 0 0 0 0 0 0 0 0 0 0 0 0 0 0 0 0 0.25 0"/>
<feBlend mode="normal" in2="BackgroundImageFix" result="effect1_dropShadow_1_2"/>
<feBlend mode="normal" in="SourceGraphic" in2="effect1_dropShadow_1_2" result="shape"/>
</filter>
<filter id="filter6_d_1_2" x="961.5" y="142.5" width="266" height="109" filterUnits="userSpaceOnUse" color-interpolation-filters="sRGB">
<feFlood flood-opacity="0" result="BackgroundImageFix"/>
<feColorMatrix in="SourceAlpha" type="matrix" values="0 0 0 0 0 0 0 0 0 0 0 0 0 0 0 0 0 0 127 0" result="hardAlpha"/>
<feMorphology radius="2" operator="erode" in="SourceAlpha" result="effect1_dropShadow_1_2"/>
<feOffset dx="2" dy="2"/>
<feGaussianBlur stdDeviation="3.75"/>
<feComposite in2="hardAlpha" operator="out"/>
<feColorMatrix type="matrix" values="0 0 0 0 0 0 0 0 0 0 0 0 0 0 0 0 0 0 0.25 0"/>
<feBlend mode="normal" in2="BackgroundImageFix" result="effect1_dropShadow_1_2"/>
<feBlend mode="normal" in="SourceGraphic" in2="effect1_dropShadow_1_2" result="shape"/>
</filter>
<filter id="filter7_d_1_2" x="64.5" y="572.5" width="1163" height="95" filterUnits="userSpaceOnUse" color-interpolation-filters="sRGB">
<feFlood flood-opacity="0" result="BackgroundImageFix"/>
<feColorMatrix in="SourceAlpha" type="matrix" values="0 0 0 0 0 0 0 0 0 0 0 0 0 0 0 0 0 0 127 0" result="hardAlpha"/>
<feMorphology radius="2" operator="erode" in="SourceAlpha" result="effect1_dropShadow_1_2"/>
<feOffset dx="2" dy="2"/>
<feGaussianBlur stdDeviation="3.75"/>
<feComposite in2="hardAlpha" operator="out"/>
<feColorMatrix type="matrix" values="0 0 0 0 0 0 0 0 0 0 0 0 0 0 0 0 0 0 0.25 0"/>
<feBlend mode="normal" in2="BackgroundImageFix" result="effect1_dropShadow_1_2"/>
<feBlend mode="normal" in="SourceGraphic" in2="effect1_dropShadow_1_2" result="shape"/>
</filter>
<filter id="filter8_d_1_2" x="56.5" y="366.5" width="291" height="185" filterUnits="userSpaceOnUse" color-interpolation-filters="sRGB">
<feFlood flood-opacity="0" result="BackgroundImageFix"/>
<feColorMatrix in="SourceAlpha" type="matrix" values="0 0 0 0 0 0 0 0 0 0 0 0 0 0 0 0 0 0 127 0" result="hardAlpha"/>
<feMorphology radius="2" operator="erode" in="SourceAlpha" result="effect1_dropShadow_1_2"/>
<feOffset dx="2" dy="2"/>
<feGaussianBlur stdDeviation="3.75"/>
<feComposite in2="hardAlpha" operator="out"/>
<feColorMatrix type="matrix" values="0 0 0 0 0 0 0 0 0 0 0 0 0 0 0 0 0 0 0.25 0"/>
<feBlend mode="normal" in2="BackgroundImageFix" result="effect1_dropShadow_1_2"/>
<feBlend mode="normal" in="SourceGraphic" in2="effect1_dropShadow_1_2" result="shape"/>
</filter>
<filter id="filter9_d_1_2" x="366.5" y="367.5" width="291" height="185" filterUnits="userSpaceOnUse" color-interpolation-filters="sRGB">
<feFlood flood-opacity="0" result="BackgroundImageFix"/>
<feColorMatrix in="SourceAlpha" type="matrix" values="0 0 0 0 0 0 0 0 0 0 0 0 0 0 0 0 0 0 127 0" result="hardAlpha"/>
<feMorphology radius="2" operator="erode" in="SourceAlpha" result="effect1_dropShadow_1_2"/>
<feOffset dx="2" dy="2"/>
<feGaussianBlur stdDeviation="3.75"/>
<feComposite in2="hardAlpha" operator="out"/>
<feColorMatrix type="matrix" values="0 0 0 0 0 0 0 0 0 0 0 0 0 0 0 0 0 0 0.25 0"/>
<feBlend mode="normal" in2="BackgroundImageFix" result="effect1_dropShadow_1_2"/>
<feBlend mode="normal" in="SourceGraphic" in2="effect1_dropShadow_1_2" result="shape"/>
</filter>
<filter id="filter10_d_1_2" x="56.5" y="142.5" width="601" height="205" filterUnits="userSpaceOnUse" color-interpolation-filters="sRGB">
<feFlood flood-opacity="0" result="BackgroundImageFix"/>
<feColorMatrix in="SourceAlpha" type="matrix" values="0 0 0 0 0 0 0 0 0 0 0 0 0 0 0 0 0 0 127 0" result="hardAlpha"/>
<feMorphology radius="2" operator="erode" in="SourceAlpha" result="effect1_dropShadow_1_2"/>
<feOffset dx="2" dy="2"/>
<feGaussianBlur stdDeviation="3.75"/>
<feComposite in2="hardAlpha" operator="out"/>
<feColorMatrix type="matrix" values="0 0 0 0 0 0 0 0 0 0 0 0 0 0 0 0 0 0 0.25 0"/>
<feBlend mode="normal" in2="BackgroundImageFix" result="effect1_dropShadow_1_2"/>
<feBlend mode="normal" in="SourceGraphic" in2="effect1_dropShadow_1_2" result="shape"/>
</filter>
</defs>
</svg>
